<svg width="221" height="60" viewBox="0 0 221 60" fill="none" xmlns="http://www.w3.org/2000/svg">
<path d="M21.0859 22.6289C21.4688 24.6159 22.9818 25.6185 25.625 25.6367C27.3659 25.6549 28.8971 25.14 30.2188 24.0918L31.3809 23.0938V26.9219L30.5742 27.5645C28.8516 28.8405 26.8372 29.4785 24.5312 29.4785C20.4206 29.4694 17.7682 27.7103 16.5742 24.2012C16.1185 22.8887 15.8952 21.5169 15.9043 20.0859C15.8952 16.7044 16.8431 14.207 18.748 12.5938C20.2064 11.3542 22.0977 10.7298 24.4219 10.7207C25.6979 10.7116 26.8372 10.8848 27.8398 11.2402C30.4648 12.1608 31.9505 14.4076 32.2969 17.9805C32.3333 18.3633 32.3516 19.0423 32.3516 20.0176L32.2012 21.918H20.9766L21.0859 22.6289ZM20.9766 18.0762H28.9336L28.8652 17.5293C28.6556 16.4355 27.9993 15.7337 26.8965 15.4238C26.2767 15.2415 25.6068 15.1504 24.8867 15.1504C22.7357 15.1777 21.4642 15.9297 21.0723 17.4062L20.9766 18.0762ZM41.8945 17.3516V21.4805H34.3477V17.3516H41.8945ZM44.4238 23.3672L45.0254 23.6816C46.2376 24.3014 47.2858 24.6979 48.1699 24.8711C48.735 24.9987 49.2956 25.0579 49.8516 25.0488C51.4922 25.0488 52.3125 24.5931 52.3125 23.6816C52.2943 23.1895 51.9844 22.8477 51.3828 22.6562C50.9727 22.5195 50.5124 22.3919 50.002 22.2734L48.0195 21.7812C47.1992 21.5625 46.4974 21.2526 45.9141 20.8516C44.5651 19.9128 43.8906 18.5046 43.8906 16.627C43.8997 14.6582 44.6152 13.1725 46.0371 12.1699C47.377 11.2129 49.0677 10.7298 51.1094 10.7207C53.069 10.748 54.6595 11.14 55.8809 11.8965L56.7012 12.4844V17.1875L55.5938 16.6133C54.5182 16.112 53.265 15.8568 51.834 15.8477C49.8835 15.8841 48.9264 16.2624 48.9629 16.9824C48.9538 17.4199 49.3411 17.707 50.125 17.8438C50.4167 17.9076 51.041 18.0625 51.998 18.3086L54.0625 18.8965C54.8464 19.1517 55.4935 19.5072 56.0039 19.9629C56.9154 20.8288 57.3757 21.9818 57.3848 23.4219C57.3665 25.2357 56.765 26.6895 55.5801 27.7832C55.015 28.3118 54.3451 28.7129 53.5703 28.9863C52.6406 29.3236 51.6654 29.4876 50.6445 29.4785C49.1406 29.4967 47.5046 29.1139 45.7363 28.3301L44.4238 27.7012V23.3672ZM65.4512 20.25C65.4421 21.6263 65.5332 22.5104 65.7246 22.9023C66.1257 23.7318 66.8685 24.1374 67.9531 24.1191C69.8854 24.1009 70.8607 22.8112 70.8789 20.25V11.1992H76.4707V29H71.1934V24.5156L70.7285 25.8828C70.0996 27.4414 69.1016 28.4987 67.7344 29.0547C67.0508 29.3464 66.2852 29.4876 65.4375 29.4785C63.8516 29.4876 62.5527 29.0182 61.541 28.0703C60.584 27.1771 60.0462 25.9056 59.9277 24.2559C59.873 23.6816 59.8503 23.0527 59.8594 22.3691V11.1992H65.4512V20.25ZM84.8926 11.1992V15.3281L85.5078 14.0293C85.8268 13.3822 86.2005 12.8216 86.6289 12.3477C87.5768 11.2812 88.8438 10.7389 90.4297 10.7207C92.7904 10.748 94.39 11.9967 95.2285 14.4668L95.4609 15.1777L96.0488 14.0293C97.2611 11.8145 98.9609 10.7116 101.148 10.7207C101.951 10.7207 102.712 10.862 103.432 11.1445C104.079 11.3997 104.626 11.7871 105.072 12.3066C105.519 12.8171 105.811 13.3503 105.947 13.9062C106.057 14.362 106.12 14.918 106.139 15.5742L106.166 17.3105V29H100.574V19.5391L100.547 18.2402C100.456 16.791 99.722 16.071 98.3457 16.0801C96.8145 16.071 95.9714 16.8047 95.8164 18.2812L95.7754 19.5391V29H90.1836V19.5391L90.1562 18.2949C90.0651 16.8092 89.3405 16.071 87.9824 16.0801C86.4694 16.0801 85.6263 16.8138 85.4531 18.2812C85.3984 18.6641 85.3757 19.0833 85.3848 19.5391V29H79.793V11.1992H84.8926ZM114.451 11.1992V15.3281L115.066 14.0293C115.385 13.3822 115.759 12.8216 116.188 12.3477C117.135 11.2812 118.402 10.7389 119.988 10.7207C122.349 10.748 123.949 11.9967 124.787 14.4668L125.02 15.1777L125.607 14.0293C126.82 11.8145 128.52 10.7116 130.707 10.7207C131.509 10.7207 132.27 10.862 132.99 11.1445C133.637 11.3997 134.184 11.7871 134.631 12.3066C135.077 12.8171 135.369 13.3503 135.506 13.9062C135.615 14.362 135.679 14.918 135.697 15.5742L135.725 17.3105V29H130.133V19.5391L130.105 18.2402C130.014 16.791 129.281 16.071 127.904 16.0801C126.373 16.071 125.53 16.8047 125.375 18.2812L125.334 19.5391V29H119.742V19.5391L119.715 18.2949C119.624 16.8092 118.899 16.071 117.541 16.0801C116.028 16.0801 115.185 16.8138 115.012 18.2812C114.957 18.6641 114.934 19.0833 114.943 19.5391V29H109.352V11.1992H114.451ZM139.074 11.1992L140.072 11.5C140.628 11.6367 141.23 11.7051 141.877 11.7051C142.524 11.7142 143.126 11.6458 143.682 11.5L144.666 11.1992V29H139.074V11.1992ZM141.891 5.77148C144.078 5.80794 145.167 6.52344 145.158 7.91797C145.158 8.96615 144.575 9.6224 143.408 9.88672C142.934 10.0143 142.428 10.0736 141.891 10.0645C139.676 10.1009 138.573 9.38542 138.582 7.91797C138.564 6.52344 139.667 5.80794 141.891 5.77148ZM148.125 12.2109C149.784 11.418 151.042 9.99154 151.898 7.93164L152.336 6.71484H155.385L155.262 9.03906L155.207 11.1992H160.717V16.3262H155.207L155.098 17.6797L155.029 20.0312V22.041C155.048 24.0736 155.809 25.0762 157.312 25.0488C158.242 25.0488 159.167 24.6615 160.088 23.8867L160.717 23.2715V27.6055L159.828 28.1797C158.397 29.0365 156.839 29.4694 155.152 29.4785C153.238 29.4785 151.807 28.8997 150.859 27.7422C150.258 27.0404 149.866 26.2839 149.684 25.4727C149.51 24.6615 149.428 23.791 149.438 22.8613C149.428 21.9225 149.456 20.6647 149.52 19.0879L149.615 16.3262H147.113V12.6074L148.125 12.2109ZM167.348 8C167.402 8.70182 167.43 9.2806 167.43 9.73633C167.43 10.3197 167.37 10.8848 167.252 11.4316C167.115 12.0605 166.928 12.7168 166.691 13.4004C166.4 14.2389 166.117 14.918 165.844 15.4375L165.42 16.1895H162.494L162.727 15.5469C163.164 14.2253 163.456 12.9629 163.602 11.7598C163.656 11.3132 163.684 10.8802 163.684 10.4609C163.684 9.78646 163.611 9.15755 163.465 8.57422L163.301 8H167.348ZM171.285 9.75C172.169 8.9388 173.154 8.32357 174.238 7.9043C175.414 7.44857 176.731 7.21615 178.189 7.20703C180.368 7.20703 182.113 7.76758 183.426 8.88867C184.921 10.1738 185.673 11.8327 185.682 13.8652C185.682 15.0592 185.44 16.2259 184.957 17.3652C184.292 18.9147 183.38 20.209 182.223 21.248C181.147 22.2051 179.885 23.1348 178.436 24.0371L177.711 24.4883H185.299V29H171.066V25.1855L172.871 23.8457C174.293 22.752 175.724 21.5169 177.164 20.1406C178.349 19.0013 179.206 17.9395 179.734 16.9551C179.971 16.5085 180.09 15.9525 180.09 15.2871C180.09 14.4941 179.821 13.8288 179.283 13.291C178.982 12.9902 178.645 12.7715 178.271 12.6348C177.798 12.4616 177.283 12.375 176.727 12.375C174.776 12.3659 173.035 13.4141 171.504 15.5195L170.82 16.5312L170.656 10.3516L171.285 9.75ZM189.605 7.68555H204.207V12.7715L197.768 16.6953H199.025C200.83 16.7318 202.247 17.1647 203.277 17.9941C204.417 18.9238 204.995 20.2637 205.014 22.0137C204.995 24.3197 204.212 26.1654 202.662 27.5508C201.222 28.8359 199.312 29.4785 196.934 29.4785C194.491 29.4694 192.399 28.8177 190.658 27.5234L189.605 26.6484L189.633 21.4941L190.344 22.2461C190.818 22.7383 191.305 23.1803 191.807 23.5723C192.955 24.5111 194.24 24.9759 195.662 24.9668C196.355 24.985 197.007 24.8711 197.617 24.625C198.802 24.1966 199.404 23.3216 199.422 22C199.385 20.2409 198.123 19.375 195.635 19.4023C194.787 19.4023 193.862 19.5482 192.859 19.8398L192.025 20.0996V16.1484L196.893 12.8535H189.605V7.68555Z" fill="white"/>
<path d="M23.3233 60H25.1993V40.4H23.3233V60ZM36.2296 60H38.1056V40.4H36.2296V60ZM49.1358 60H51.0118V40.4H49.1358V60ZM66.8861 60H68.7621V42.136H75.1461V40.4H60.4741V42.136H66.8861V60ZM83.34 52.72H91.18V51.152H83.34V52.72ZM100.925 60H106.469C111.985 60 116.157 56.332 116.157 50.2C116.157 44.068 111.985 40.4 106.469 40.4H100.925V60ZM102.801 58.264V42.136H106.525C110.501 42.136 114.169 44.572 114.169 50.2C114.169 55.828 110.501 58.264 106.525 58.264H102.801ZM126.3 60H138.564V58.264H128.176V50.424H136.436V48.688H128.176V42.136H138.256V40.4H126.3V60ZM148.749 60H160.677V58.264H150.625V40.4H148.749V60ZM182.903 40.4V48.716H171.871V40.4H169.995V60H171.871V50.452H182.903V60H184.779V40.4H182.903ZM195.808 60H197.684V40.4H195.808V60Z" fill="white"/>
</svg>
