<svg xmlns="http://www.w3.org/2000/svg" xmlns:xlink="http://www.w3.org/1999/xlink" width="3822" zoomAndPan="magnify" viewBox="0 0 2866.5 3916.499923" height="5222" preserveAspectRatio="xMidYMid meet" version="1.0"><defs><g/></defs><g fill="#000000" fill-opacity="1"><g transform="translate(192.926417, 1787.602582)"><g><path d="M 172.53125 5.59375 C 145.550781 5.59375 121.539062 2.265625 100.5 -4.390625 C 79.46875 -11.046875 61.941406 -19.785156 47.921875 -30.609375 C 33.898438 -41.441406 23.160156 -53.335938 15.703125 -66.296875 L 58.046875 -117.953125 L 64.703125 -117.953125 C 76.410156 -100.554688 91.269531 -86.707031 109.28125 -76.40625 C 127.300781 -66.113281 148.382812 -60.96875 172.53125 -60.96875 C 193.113281 -60.96875 208.640625 -65.316406 219.109375 -74.015625 C 229.585938 -82.710938 234.828125 -94.691406 234.828125 -109.953125 C 234.828125 -119.179688 233.140625 -126.898438 229.765625 -133.109375 C 226.390625 -139.328125 220.796875 -144.65625 212.984375 -149.09375 C 205.179688 -153.53125 194.625 -157.347656 181.3125 -160.546875 L 131.25 -172 C 96.289062 -179.976562 70.242188 -193.242188 53.109375 -211.796875 C 35.984375 -230.347656 27.421875 -254.441406 27.421875 -284.078125 C 27.421875 -306.085938 32.921875 -325.4375 43.921875 -342.125 C 54.929688 -358.8125 70.953125 -371.769531 91.984375 -381 C 113.015625 -390.226562 138.175781 -394.84375 167.46875 -394.84375 C 197.46875 -394.84375 223.160156 -390.890625 244.546875 -382.984375 C 265.929688 -375.085938 283.988281 -362.972656 298.71875 -346.640625 L 260.65625 -294.46875 L 254 -294.46875 C 242.988281 -306 230.382812 -314.648438 216.1875 -320.421875 C 201.988281 -326.191406 185.75 -329.078125 167.46875 -329.078125 C 146.34375 -329.078125 130.273438 -325.347656 119.265625 -317.890625 C 108.265625 -310.441406 102.765625 -300.148438 102.765625 -287.015625 C 102.765625 -274.765625 106.625 -265 114.34375 -257.71875 C 122.070312 -250.445312 135.429688 -244.769531 154.421875 -240.6875 L 205.546875 -230.03125 C 243.347656 -222.039062 270.769531 -208.503906 287.8125 -189.421875 C 304.851562 -170.347656 313.375 -145.457031 313.375 -114.75 C 313.375 -90.4375 308.132812 -69.269531 297.65625 -51.25 C 287.1875 -33.238281 271.390625 -19.257812 250.265625 -9.3125 C 229.140625 0.625 203.226562 5.59375 172.53125 5.59375 Z M 172.53125 5.59375 "/></g></g><g transform="translate(527.331183, 1787.602582)"><g><path d="M 171.1875 5.59375 C 142.789062 5.59375 117.675781 -0.304688 95.84375 -12.109375 C 74.007812 -23.910156 56.96875 -41.257812 44.71875 -64.15625 C 32.476562 -87.0625 26.359375 -114.578125 26.359375 -146.703125 C 26.359375 -179.003906 32.476562 -206.601562 44.71875 -229.5 C 56.96875 -252.394531 73.921875 -269.742188 95.578125 -281.546875 C 117.234375 -293.347656 141.992188 -299.25 169.859375 -299.25 C 231.804688 -299.25 271.476562 -276.796875 288.875 -231.890625 L 238.28125 -195.6875 L 232.703125 -195.6875 C 226.660156 -209.53125 218.800781 -219.820312 209.125 -226.5625 C 199.457031 -233.3125 186.367188 -236.6875 169.859375 -236.6875 C 148.554688 -236.6875 131.957031 -229.320312 120.0625 -214.59375 C 108.175781 -199.863281 102.234375 -177.234375 102.234375 -146.703125 C 102.234375 -116.523438 108.269531 -94.023438 120.34375 -79.203125 C 132.414062 -64.378906 149.363281 -56.96875 171.1875 -56.96875 C 187.164062 -56.96875 200.703125 -61.269531 211.796875 -69.875 C 222.890625 -78.488281 230.832031 -90.875 235.625 -107.03125 L 241.21875 -107.5625 L 293.671875 -78.8125 C 286.210938 -53.957031 272.410156 -33.675781 252.265625 -17.96875 C 232.117188 -2.257812 205.09375 5.59375 171.1875 5.59375 Z M 171.1875 5.59375 "/></g></g><g transform="translate(830.052695, 1787.602582)"><g><path d="M 42.328125 0 L 42.328125 -411.609375 L 116.078125 -411.609375 L 116.078125 -255.328125 L 121.671875 -254.265625 C 131.429688 -268.640625 143.410156 -279.726562 157.609375 -287.53125 C 171.816406 -295.34375 188.945312 -299.25 209 -299.25 C 273.78125 -299.25 306.171875 -262.507812 306.171875 -189.03125 L 306.171875 0 L 232.4375 0 L 232.4375 -179.71875 C 232.4375 -199.769531 228.441406 -214.320312 220.453125 -223.375 C 212.460938 -232.425781 200.035156 -236.953125 183.171875 -236.953125 C 162.585938 -236.953125 146.257812 -230.070312 134.1875 -216.3125 C 122.113281 -202.5625 116.078125 -181.132812 116.078125 -152.03125 L 116.078125 0 Z M 42.328125 0 "/></g></g><g transform="translate(1174.042313, 1787.602582)"><g><path d="M 290.203125 -130.1875 L 101.4375 -130.1875 C 103.570312 -104.632812 110.847656 -86.039062 123.265625 -74.40625 C 135.691406 -62.78125 152.644531 -56.96875 174.125 -56.96875 C 190.988281 -56.96875 204.65625 -60.117188 215.125 -66.421875 C 225.59375 -72.722656 234.023438 -82.265625 240.421875 -95.046875 L 246.015625 -95.046875 L 295 -63.625 C 285.414062 -43.039062 270.945312 -26.359375 251.59375 -13.578125 C 232.25 -0.796875 206.425781 5.59375 174.125 5.59375 C 143.769531 5.59375 117.539062 -0.171875 95.4375 -11.703125 C 73.34375 -23.242188 56.304688 -40.414062 44.328125 -63.21875 C 32.347656 -86.03125 26.359375 -113.859375 26.359375 -146.703125 C 26.359375 -180.066406 32.660156 -208.195312 45.265625 -231.09375 C 57.867188 -253.988281 74.90625 -271.070312 96.375 -282.34375 C 117.851562 -293.613281 141.992188 -299.25 168.796875 -299.25 C 210.328125 -299.25 242.140625 -288.242188 264.234375 -266.234375 C 286.335938 -244.234375 297.390625 -211.929688 297.390625 -169.328125 C 297.390625 -153.890625 296.859375 -141.910156 295.796875 -133.390625 Z M 226.84375 -177.84375 C 226.132812 -200.207031 220.941406 -216.492188 211.265625 -226.703125 C 201.585938 -236.910156 187.429688 -242.015625 168.796875 -242.015625 C 131.523438 -242.015625 109.601562 -220.625 103.03125 -177.84375 Z M 226.84375 -177.84375 "/></g></g><g transform="translate(1493.271068, 1787.602582)"><g><path d="M 145.109375 5.59375 C 121.847656 5.59375 101.296875 -0.0390625 83.453125 -11.3125 C 65.617188 -22.582031 51.644531 -39.617188 41.53125 -62.421875 C 31.414062 -85.234375 26.359375 -113.328125 26.359375 -146.703125 C 26.359375 -180.242188 31.550781 -208.414062 41.9375 -231.21875 C 52.320312 -254.03125 66.695312 -271.070312 85.0625 -282.34375 C 103.4375 -293.613281 124.691406 -299.25 148.828125 -299.25 C 167.109375 -299.25 182.945312 -296.097656 196.34375 -289.796875 C 209.75 -283.503906 221.066406 -273.703125 230.296875 -260.390625 L 235.890625 -261.71875 L 235.890625 -411.609375 L 309.640625 -411.609375 L 309.640625 0 L 235.890625 0 L 235.890625 -38.078125 L 230.296875 -39.140625 C 222.128906 -25.296875 210.945312 -14.378906 196.75 -6.390625 C 182.550781 1.597656 165.335938 5.59375 145.109375 5.59375 Z M 169.0625 -56.96875 C 189.832031 -56.96875 206.25 -64.378906 218.3125 -79.203125 C 230.382812 -94.023438 236.421875 -116.523438 236.421875 -146.703125 C 236.421875 -176.878906 230.382812 -199.421875 218.3125 -214.328125 C 206.25 -229.234375 189.832031 -236.6875 169.0625 -236.6875 C 147.40625 -236.6875 130.851562 -229.453125 119.40625 -214.984375 C 107.957031 -200.523438 102.234375 -177.765625 102.234375 -146.703125 C 102.234375 -115.816406 107.957031 -93.140625 119.40625 -78.671875 C 130.851562 -64.203125 147.40625 -56.96875 169.0625 -56.96875 Z M 169.0625 -56.96875 "/></g></g><g transform="translate(1845.248058, 1787.602582)"><g><path d="M 134.453125 5.59375 C 101.441406 5.59375 77.082031 -3.410156 61.375 -21.421875 C 45.664062 -39.441406 37.8125 -65.316406 37.8125 -99.046875 L 37.8125 -293.671875 L 111.5625 -293.671875 L 111.5625 -108.359375 C 111.5625 -90.429688 115.421875 -77.335938 123.140625 -69.078125 C 130.859375 -60.828125 142.796875 -56.703125 158.953125 -56.703125 C 179.359375 -56.703125 195.238281 -63.398438 206.59375 -76.796875 C 217.957031 -90.203125 223.640625 -111.285156 223.640625 -140.046875 L 223.640625 -293.671875 L 297.390625 -293.671875 L 297.390625 0 L 226.578125 0 L 226.578125 -43.125 L 220.984375 -44.46875 C 211.578125 -27.601562 200.082031 -15.039062 186.5 -6.78125 C 172.925781 1.46875 155.578125 5.59375 134.453125 5.59375 Z M 134.453125 5.59375 "/></g></g><g transform="translate(2184.977743, 1787.602582)"><g><path d="M 121.9375 5.59375 C 95.488281 5.59375 75.296875 -1.550781 61.359375 -15.84375 C 47.429688 -30.132812 40.46875 -51.832031 40.46875 -80.9375 L 40.46875 -411.609375 L 114.21875 -411.609375 L 114.21875 -83.859375 C 114.21875 -65.929688 121.671875 -56.96875 136.578125 -56.96875 C 140.835938 -56.96875 145.363281 -57.679688 150.15625 -59.109375 L 153.890625 -58.046875 L 160.546875 -1.328125 C 156.460938 0.796875 151.046875 2.476562 144.296875 3.71875 C 137.554688 4.96875 130.101562 5.59375 121.9375 5.59375 Z M 121.9375 5.59375 "/></g></g><g transform="translate(2353.7776, 1787.602582)"><g><path d="M 290.203125 -130.1875 L 101.4375 -130.1875 C 103.570312 -104.632812 110.847656 -86.039062 123.265625 -74.40625 C 135.691406 -62.78125 152.644531 -56.96875 174.125 -56.96875 C 190.988281 -56.96875 204.65625 -60.117188 215.125 -66.421875 C 225.59375 -72.722656 234.023438 -82.265625 240.421875 -95.046875 L 246.015625 -95.046875 L 295 -63.625 C 285.414062 -43.039062 270.945312 -26.359375 251.59375 -13.578125 C 232.25 -0.796875 206.425781 5.59375 174.125 5.59375 C 143.769531 5.59375 117.539062 -0.171875 95.4375 -11.703125 C 73.34375 -23.242188 56.304688 -40.414062 44.328125 -63.21875 C 32.347656 -86.03125 26.359375 -113.859375 26.359375 -146.703125 C 26.359375 -180.066406 32.660156 -208.195312 45.265625 -231.09375 C 57.867188 -253.988281 74.90625 -271.070312 96.375 -282.34375 C 117.851562 -293.613281 141.992188 -299.25 168.796875 -299.25 C 210.328125 -299.25 242.140625 -288.242188 264.234375 -266.234375 C 286.335938 -244.234375 297.390625 -211.929688 297.390625 -169.328125 C 297.390625 -153.890625 296.859375 -141.910156 295.796875 -133.390625 Z M 226.84375 -177.84375 C 226.132812 -200.207031 220.941406 -216.492188 211.265625 -226.703125 C 201.585938 -236.910156 187.429688 -242.015625 168.796875 -242.015625 C 131.523438 -242.015625 109.601562 -220.625 103.03125 -177.84375 Z M 226.84375 -177.84375 "/></g></g></g><g fill="#000000" fill-opacity="1"><g transform="translate(744.215056, 2550.982634)"><g><path d="M 202.609375 -70.015625 L 221.78125 -15.4375 C 213.789062 -8.875 203.757812 -3.726562 191.6875 0 C 179.625 3.726562 165.957031 5.59375 150.6875 5.59375 C 118.914062 5.59375 94.773438 -3.054688 78.265625 -20.359375 C 61.765625 -37.671875 53.515625 -62.832031 53.515625 -95.84375 L 53.515625 -235.359375 L 8.78125 -235.359375 L 8.78125 -293.9375 L 53.515625 -293.9375 L 53.515625 -351.171875 L 127.265625 -363.15625 L 127.265625 -293.9375 L 210.59375 -293.9375 L 210.59375 -235.359375 L 127.265625 -235.359375 L 127.265625 -101.171875 C 127.265625 -86.617188 130.28125 -76.015625 136.3125 -69.359375 C 142.351562 -62.703125 151.140625 -59.375 162.671875 -59.375 C 175.804688 -59.375 187.253906 -62.921875 197.015625 -70.015625 Z M 202.609375 -70.015625 "/></g></g><g transform="translate(972.387734, 2550.982634)"><g><path d="M 114.484375 5.59375 C 95.671875 5.59375 79.34375 2.132812 65.5 -4.78125 C 51.65625 -11.707031 41.003906 -21.867188 33.546875 -35.265625 C 26.085938 -48.671875 22.359375 -64.78125 22.359375 -83.59375 C 22.359375 -100.988281 26.085938 -115.585938 33.546875 -127.390625 C 41.003906 -139.203125 52.539062 -148.878906 68.15625 -156.421875 C 83.78125 -163.960938 104.191406 -169.773438 129.390625 -173.859375 C 146.960938 -176.691406 160.316406 -179.796875 169.453125 -183.171875 C 178.597656 -186.546875 184.769531 -190.363281 187.96875 -194.625 C 191.164062 -198.882812 192.765625 -204.296875 192.765625 -210.859375 C 192.765625 -220.265625 189.476562 -227.453125 182.90625 -232.421875 C 176.34375 -237.398438 165.425781 -239.890625 150.15625 -239.890625 C 133.832031 -239.890625 118.300781 -236.25 103.5625 -228.96875 C 88.832031 -221.6875 76.054688 -212.101562 65.234375 -200.21875 L 59.90625 -200.21875 L 29.015625 -246.8125 C 43.929688 -263.3125 62.125 -276.175781 83.59375 -285.40625 C 105.070312 -294.632812 128.503906 -299.25 153.890625 -299.25 C 192.765625 -299.25 220.894531 -290.992188 238.28125 -274.484375 C 255.675781 -257.984375 264.375 -234.554688 264.375 -204.203125 L 264.375 -76.671875 C 264.375 -63.535156 270.144531 -56.96875 281.6875 -56.96875 C 286.125 -56.96875 290.472656 -57.769531 294.734375 -59.375 L 298.453125 -58.3125 L 303.78125 -6.921875 C 299.695312 -4.253906 294.015625 -2.078125 286.734375 -0.390625 C 279.460938 1.285156 271.476562 2.125 262.78125 2.125 C 245.207031 2.125 231.492188 -1.242188 221.640625 -7.984375 C 211.796875 -14.734375 204.742188 -25.296875 200.484375 -39.671875 L 194.890625 -40.203125 C 180.515625 -9.671875 153.710938 5.59375 114.484375 5.59375 Z M 137.90625 -49.515625 C 154.945312 -49.515625 168.570312 -55.238281 178.78125 -66.6875 C 188.988281 -78.132812 194.09375 -94.066406 194.09375 -114.484375 L 194.09375 -144.296875 L 189.03125 -145.375 C 184.59375 -141.820312 178.78125 -138.847656 171.59375 -136.453125 C 164.40625 -134.054688 154.066406 -131.703125 140.578125 -129.390625 C 124.597656 -126.734375 113.101562 -122.164062 106.09375 -115.6875 C 99.082031 -109.207031 95.578125 -100.019531 95.578125 -88.125 C 95.578125 -75.519531 99.304688 -65.929688 106.765625 -59.359375 C 114.222656 -52.796875 124.601562 -49.515625 137.90625 -49.515625 Z M 137.90625 -49.515625 "/></g></g><g transform="translate(1282.031636, 2550.982634)"><g><path d="M 205.265625 5.59375 C 167.816406 5.59375 139.953125 -8.425781 121.671875 -36.46875 L 116.078125 -35.40625 L 116.078125 0 L 42.328125 0 L 42.328125 -411.609375 L 116.078125 -411.609375 L 116.078125 -259.046875 L 121.671875 -257.984375 C 131.785156 -272.003906 143.71875 -282.382812 157.46875 -289.125 C 171.226562 -295.875 187.695312 -299.25 206.875 -299.25 C 230.65625 -299.25 251.421875 -293.65625 269.171875 -282.46875 C 286.921875 -271.289062 300.765625 -254.296875 310.703125 -231.484375 C 320.640625 -208.679688 325.609375 -180.421875 325.609375 -146.703125 C 325.609375 -113.328125 320.460938 -85.234375 310.171875 -62.421875 C 299.878906 -39.617188 285.679688 -22.582031 267.578125 -11.3125 C 249.472656 -0.0390625 228.703125 5.59375 205.265625 5.59375 Z M 182.90625 -56.96875 C 204.5625 -56.96875 221.066406 -64.203125 232.421875 -78.671875 C 243.785156 -93.140625 249.46875 -115.816406 249.46875 -146.703125 C 249.46875 -177.765625 243.785156 -200.523438 232.421875 -214.984375 C 221.066406 -229.453125 204.5625 -236.6875 182.90625 -236.6875 C 162.144531 -236.6875 145.679688 -229.234375 133.515625 -214.328125 C 121.359375 -199.421875 115.28125 -176.878906 115.28125 -146.703125 C 115.28125 -116.523438 121.359375 -94.023438 133.515625 -79.203125 C 145.679688 -64.378906 162.144531 -56.96875 182.90625 -56.96875 Z M 182.90625 -56.96875 "/></g></g><g transform="translate(1633.74238, 2550.982634)"><g><path d="M 121.9375 5.59375 C 95.488281 5.59375 75.296875 -1.550781 61.359375 -15.84375 C 47.429688 -30.132812 40.46875 -51.832031 40.46875 -80.9375 L 40.46875 -411.609375 L 114.21875 -411.609375 L 114.21875 -83.859375 C 114.21875 -65.929688 121.671875 -56.96875 136.578125 -56.96875 C 140.835938 -56.96875 145.363281 -57.679688 150.15625 -59.109375 L 153.890625 -58.046875 L 160.546875 -1.328125 C 156.460938 0.796875 151.046875 2.476562 144.296875 3.71875 C 137.554688 4.96875 130.101562 5.59375 121.9375 5.59375 Z M 121.9375 5.59375 "/></g></g><g transform="translate(1802.542237, 2550.982634)"><g><path d="M 290.203125 -130.1875 L 101.4375 -130.1875 C 103.570312 -104.632812 110.847656 -86.039062 123.265625 -74.40625 C 135.691406 -62.78125 152.644531 -56.96875 174.125 -56.96875 C 190.988281 -56.96875 204.65625 -60.117188 215.125 -66.421875 C 225.59375 -72.722656 234.023438 -82.265625 240.421875 -95.046875 L 246.015625 -95.046875 L 295 -63.625 C 285.414062 -43.039062 270.945312 -26.359375 251.59375 -13.578125 C 232.25 -0.796875 206.425781 5.59375 174.125 5.59375 C 143.769531 5.59375 117.539062 -0.171875 95.4375 -11.703125 C 73.34375 -23.242188 56.304688 -40.414062 44.328125 -63.21875 C 32.347656 -86.03125 26.359375 -113.859375 26.359375 -146.703125 C 26.359375 -180.066406 32.660156 -208.195312 45.265625 -231.09375 C 57.867188 -253.988281 74.90625 -271.070312 96.375 -282.34375 C 117.851562 -293.613281 141.992188 -299.25 168.796875 -299.25 C 210.328125 -299.25 242.140625 -288.242188 264.234375 -266.234375 C 286.335938 -244.234375 297.390625 -211.929688 297.390625 -169.328125 C 297.390625 -153.890625 296.859375 -141.910156 295.796875 -133.390625 Z M 226.84375 -177.84375 C 226.132812 -200.207031 220.941406 -216.492188 211.265625 -226.703125 C 201.585938 -236.910156 187.429688 -242.015625 168.796875 -242.015625 C 131.523438 -242.015625 109.601562 -220.625 103.03125 -177.84375 Z M 226.84375 -177.84375 "/></g></g></g></svg>