<svg width="331" height="130" viewBox="0 0 331 130" fill="none" xmlns="http://www.w3.org/2000/svg">
<circle cx="166" cy="65" r="64" stroke="white" stroke-width="2"/>
<path fill-rule="evenodd" clip-rule="evenodd" d="M209.047 111H211.924C223.709 99.2343 231 82.9686 231 65C231 64.6661 230.997 64.3327 230.992 64H228.992C228.997 64.3327 229 64.6661 229 65C229 83.1482 221.326 99.504 209.047 111ZM120.076 111H122.953C110.674 99.504 103 83.1482 103 65C103 64.6661 103.003 64.3327 103.008 64H101.008C101.003 64.3327 101 64.6661 101 65C101 82.9686 108.291 99.2343 120.076 111Z" fill="#0E0E0E"/>
<path d="M6.195 94.168C9.408 94.168 11.529 92.53 11.529 90.031C11.529 84.151 3.129 86.335 3.129 82.975C3.129 81.652 4.263 80.833 6.153 80.833C8.001 80.833 9.261 81.841 9.555 83.437L11.298 82.765C10.92 80.581 8.841 79.132 6.153 79.132C3.255 79.132 1.197 80.686 1.197 82.975C1.197 88.183 9.555 86.125 9.555 90.052C9.555 91.522 8.253 92.467 6.237 92.467C4.284 92.467 2.709 91.123 2.415 89.065L0.609 89.653C1.092 92.341 3.36 94.168 6.195 94.168ZM19.8227 94H29.3147V92.278H21.7337V87.049H27.6977V85.327H21.7337V81.001H29.0837V79.3H19.8227V94ZM37.7227 94H47.2147V92.278H39.6337V87.049H45.5977V85.327H39.6337V81.001H46.9837V79.3H37.7227V94ZM69.9912 94H71.9862L75.5562 82.156L79.0842 94H81.1002L85.5522 79.3H83.5782L80.0712 91.795L76.5432 79.3H74.5482L70.9992 91.795L67.4922 79.3H65.5182L69.9912 94ZM102.987 79.3V85.39H95.3641V79.3H93.4531V94H95.3641V87.112H102.987V94H104.898V79.3H102.987ZM124.017 94H126.012L120.174 79.3H118.431L112.614 94H114.588L116.037 90.262H122.568L124.017 94ZM116.688 88.561L119.313 81.82L121.917 88.561H116.688ZM135.263 94H137.174V81.001H141.836V79.3H130.58V81.001H135.263V94ZM149.406 83.29H150.624L152.829 79.132H150.54L149.406 83.29ZM165.081 94.168C168.294 94.168 170.415 92.53 170.415 90.031C170.415 84.151 162.015 86.335 162.015 82.975C162.015 81.652 163.149 80.833 165.039 80.833C166.887 80.833 168.147 81.841 168.441 83.437L170.184 82.765C169.806 80.581 167.727 79.132 165.039 79.132C162.141 79.132 160.083 80.686 160.083 82.975C160.083 88.183 168.441 86.125 168.441 90.052C168.441 91.522 167.139 92.467 165.123 92.467C163.17 92.467 161.595 91.123 161.301 89.065L159.495 89.653C159.978 92.341 162.246 94.168 165.081 94.168ZM196.332 94.168C200.511 94.168 203.556 91.018 203.556 86.65C203.556 82.282 200.511 79.132 196.332 79.132C192.132 79.132 189.087 82.282 189.087 86.65C189.087 91.018 192.132 94.168 196.332 94.168ZM196.311 92.446C193.266 92.446 191.04 90.01 191.04 86.65C191.04 83.29 193.266 80.833 196.311 80.833C199.398 80.833 201.603 83.29 201.603 86.65C201.603 90.01 199.398 92.446 196.311 92.446ZM211.945 94H213.814V82.345L221.227 94H223.348V79.3H221.479V90.997L214.066 79.3H211.945V94ZM250.032 94.168C254.211 94.168 257.256 91.018 257.256 86.65C257.256 82.282 254.211 79.132 250.032 79.132C245.832 79.132 242.787 82.282 242.787 86.65C242.787 91.018 245.832 94.168 250.032 94.168ZM250.011 92.446C246.966 92.446 244.74 90.01 244.74 86.65C244.74 83.29 246.966 80.833 250.011 80.833C253.098 80.833 255.303 83.29 255.303 86.65C255.303 90.01 253.098 92.446 250.011 92.446ZM265.645 94H267.556V87.217H273.688V85.495H267.556V81.001H275.053V79.3H265.645V94ZM283.401 94H285.312V87.217H291.444V85.495H285.312V81.001H292.809V79.3H283.401V94ZM301.158 94H310.65V92.278H303.069V87.049H309.033V85.327H303.069V81.001H310.419V79.3H301.158V94ZM330.482 94L326.24 87.154C327.941 86.566 328.97 85.18 328.97 83.374C328.97 80.917 327.143 79.3 324.35 79.3H319.058V94H320.969V87.448H324.224L328.298 94H330.482ZM320.969 81.001H324.14C325.946 81.001 327.017 81.883 327.017 83.374C327.017 84.865 325.946 85.726 324.14 85.726H320.969V81.001Z" fill="white"/>
<path d="M165.293 54.7071C165.683 55.0976 166.317 55.0976 166.707 54.7071L173.071 48.3431C173.462 47.9526 173.462 47.3195 173.071 46.9289C172.681 46.5384 172.047 46.5384 171.657 46.9289L166 52.5858L160.343 46.9289C159.953 46.5384 159.319 46.5384 158.929 46.9289C158.538 47.3195 158.538 47.9526 158.929 48.3431L165.293 54.7071ZM165 20V54H167V20H165Z" fill="white"/>
</svg>
