<svg width="274" height="126" viewBox="0 0 274 126" fill="none" xmlns="http://www.w3.org/2000/svg">
<path d="M23.5395 15.488L19.0035 31H14.7755L11.9475 20.164L9.11952 31H4.86352L0.299516 15.488H4.27552L7.01952 27.304L9.98752 15.488H14.1315L17.0435 27.276L19.7875 15.488H23.5395ZM34.3965 15.264C35.5725 15.264 36.6178 15.5253 37.5325 16.048C38.4472 16.552 39.1565 17.308 39.6605 18.316C40.1832 19.3053 40.4445 20.5 40.4445 21.9V31H36.5245V22.432C36.5245 21.2 36.2165 20.2573 35.6005 19.604C34.9845 18.932 34.1445 18.596 33.0805 18.596C31.9978 18.596 31.1392 18.932 30.5045 19.604C29.8885 20.2573 29.5805 21.2 29.5805 22.432V31H25.6605V10.28H29.5805V17.42C30.0845 16.748 30.7565 16.2253 31.5965 15.852C32.4365 15.46 33.3698 15.264 34.3965 15.264ZM43.1642 23.188C43.1642 21.62 43.4722 20.2293 44.0882 19.016C44.7229 17.8027 45.5722 16.8693 46.6362 16.216C47.7189 15.5627 48.9229 15.236 50.2482 15.236C51.4056 15.236 52.4136 15.4693 53.2722 15.936C54.1496 16.4027 54.8496 16.9907 55.3722 17.7V15.488H59.3202V31H55.3722V28.732C54.8682 29.46 54.1682 30.0667 53.2722 30.552C52.3949 31.0187 51.3776 31.252 50.2202 31.252C48.9136 31.252 47.7189 30.916 46.6362 30.244C45.5722 29.572 44.7229 28.6293 44.0882 27.416C43.4722 26.184 43.1642 24.7747 43.1642 23.188ZM55.3722 23.244C55.3722 22.292 55.1856 21.48 54.8122 20.808C54.4389 20.1173 53.9349 19.5947 53.3002 19.24C52.6656 18.8667 51.9842 18.68 51.2562 18.68C50.5282 18.68 49.8562 18.8573 49.2402 19.212C48.6242 19.5667 48.1202 20.0893 47.7282 20.78C47.3549 21.452 47.1682 22.2547 47.1682 23.188C47.1682 24.1213 47.3549 24.9427 47.7282 25.652C48.1202 26.3427 48.6242 26.8747 49.2402 27.248C49.8749 27.6213 50.5469 27.808 51.2562 27.808C51.9842 27.808 52.6656 27.6307 53.3002 27.276C53.9349 26.9027 54.4389 26.38 54.8122 25.708C55.1856 25.0173 55.3722 24.196 55.3722 23.244ZM67.7128 18.708V26.212C67.7128 26.7347 67.8341 27.1173 68.0768 27.36C68.3381 27.584 68.7675 27.696 69.3648 27.696H71.1848V31H68.7208C65.4168 31 63.7648 29.3947 63.7648 26.184V18.708H61.9168V15.488H63.7648V11.652H67.7128V15.488H71.1848V18.708H67.7128ZM74.7883 11.456H78.9043L75.8803 18.512H73.1923L74.7883 11.456ZM87.6512 31.252C86.3819 31.252 85.2432 31.028 84.2352 30.58C83.2272 30.1133 82.4245 29.488 81.8272 28.704C81.2485 27.92 80.9312 27.052 80.8752 26.1H84.8232C84.8979 26.6973 85.1872 27.192 85.6912 27.584C86.2139 27.976 86.8579 28.172 87.6232 28.172C88.3699 28.172 88.9485 28.0227 89.3592 27.724C89.7885 27.4253 90.0032 27.0427 90.0032 26.576C90.0032 26.072 89.7419 25.6987 89.2192 25.456C88.7152 25.1947 87.9032 24.9147 86.7832 24.616C85.6259 24.336 84.6739 24.0467 83.9272 23.748C83.1992 23.4493 82.5645 22.992 82.0232 22.376C81.5005 21.76 81.2392 20.9293 81.2392 19.884C81.2392 19.0253 81.4819 18.2413 81.9672 17.532C82.4712 16.8227 83.1805 16.2627 84.0952 15.852C85.0285 15.4413 86.1205 15.236 87.3712 15.236C89.2192 15.236 90.6939 15.7027 91.7952 16.636C92.8965 17.5507 93.5032 18.792 93.6152 20.36H89.8632C89.8072 19.744 89.5459 19.2587 89.0792 18.904C88.6312 18.5307 88.0245 18.344 87.2592 18.344C86.5499 18.344 85.9992 18.4747 85.6072 18.736C85.2339 18.9973 85.0472 19.3613 85.0472 19.828C85.0472 20.3507 85.3085 20.752 85.8312 21.032C86.3539 21.2933 87.1659 21.564 88.2672 21.844C89.3872 22.124 90.3112 22.4133 91.0392 22.712C91.7672 23.0107 92.3925 23.4773 92.9152 24.112C93.4565 24.728 93.7365 25.5493 93.7552 26.576C93.7552 27.472 93.5032 28.2747 92.9992 28.984C92.5139 29.6933 91.8045 30.2533 90.8712 30.664C89.9565 31.056 88.8832 31.252 87.6512 31.252ZM105.633 13.64C104.942 13.64 104.364 13.4253 103.897 12.996C103.449 12.548 103.225 11.9973 103.225 11.344C103.225 10.6907 103.449 10.1493 103.897 9.72C104.364 9.272 104.942 9.048 105.633 9.048C106.324 9.048 106.893 9.272 107.341 9.72C107.808 10.1493 108.041 10.6907 108.041 11.344C108.041 11.9973 107.808 12.548 107.341 12.996C106.893 13.4253 106.324 13.64 105.633 13.64ZM107.565 15.488V31H103.645V15.488H107.565ZM120.034 15.264C121.882 15.264 123.375 15.852 124.514 17.028C125.653 18.1853 126.222 19.8093 126.222 21.9V31H122.302V22.432C122.302 21.2 121.994 20.2573 121.378 19.604C120.762 18.932 119.922 18.596 118.858 18.596C117.775 18.596 116.917 18.932 116.282 19.604C115.666 20.2573 115.358 21.2 115.358 22.432V31H111.438V15.488H115.358V17.42C115.881 16.748 116.543 16.2253 117.346 15.852C118.167 15.46 119.063 15.264 120.034 15.264ZM138.609 13.64C137.919 13.64 137.34 13.4253 136.873 12.996C136.425 12.548 136.201 11.9973 136.201 11.344C136.201 10.6907 136.425 10.1493 136.873 9.72C137.34 9.272 137.919 9.048 138.609 9.048C139.3 9.048 139.869 9.272 140.317 9.72C140.784 10.1493 141.017 10.6907 141.017 11.344C141.017 11.9973 140.784 12.548 140.317 12.996C139.869 13.4253 139.3 13.64 138.609 13.64ZM140.541 15.488V31H136.621V15.488H140.541ZM148.978 18.708V26.212C148.978 26.7347 149.1 27.1173 149.342 27.36C149.604 27.584 150.033 27.696 150.63 27.696H152.45V31H149.986C146.682 31 145.03 29.3947 145.03 26.184V18.708H143.182V15.488H145.03V11.652H148.978V15.488H152.45V18.708H148.978ZM169.054 18.708H166.338V31H162.362V18.708H160.598V15.488H162.362V14.704C162.362 12.8 162.903 11.4 163.986 10.504C165.068 9.608 166.702 9.188 168.886 9.244V12.548C167.934 12.5293 167.271 12.688 166.898 13.024C166.524 13.36 166.338 13.9667 166.338 14.844V15.488H169.054V18.708ZM178.482 31.252C176.989 31.252 175.645 30.9253 174.45 30.272C173.255 29.6 172.313 28.6573 171.622 27.444C170.95 26.2307 170.614 24.8307 170.614 23.244C170.614 21.6573 170.959 20.2573 171.65 19.044C172.359 17.8307 173.321 16.8973 174.534 16.244C175.747 15.572 177.101 15.236 178.594 15.236C180.087 15.236 181.441 15.572 182.654 16.244C183.867 16.8973 184.819 17.8307 185.51 19.044C186.219 20.2573 186.574 21.6573 186.574 23.244C186.574 24.8307 186.21 26.2307 185.482 27.444C184.773 28.6573 183.802 29.6 182.57 30.272C181.357 30.9253 179.994 31.252 178.482 31.252ZM178.482 27.836C179.191 27.836 179.854 27.668 180.47 27.332C181.105 26.9773 181.609 26.4547 181.982 25.764C182.355 25.0733 182.542 24.2333 182.542 23.244C182.542 21.7693 182.15 20.64 181.366 19.856C180.601 19.0533 179.658 18.652 178.538 18.652C177.418 18.652 176.475 19.0533 175.71 19.856C174.963 20.64 174.59 21.7693 174.59 23.244C174.59 24.7187 174.954 25.8573 175.682 26.66C176.429 27.444 177.362 27.836 178.482 27.836ZM193.37 17.896C193.874 17.0747 194.527 16.4307 195.33 15.964C196.151 15.4973 197.084 15.264 198.13 15.264V19.38H197.094C195.862 19.38 194.928 19.6693 194.294 20.248C193.678 20.8267 193.37 21.8347 193.37 23.272V31H189.45V15.488H193.37V17.896ZM222.282 15.488L212.678 38.336H208.506L211.866 30.608L205.65 15.488H210.046L214.05 26.324L218.11 15.488H222.282ZM231.283 31.252C229.79 31.252 228.446 30.9253 227.251 30.272C226.056 29.6 225.114 28.6573 224.423 27.444C223.751 26.2307 223.415 24.8307 223.415 23.244C223.415 21.6573 223.76 20.2573 224.451 19.044C225.16 17.8307 226.122 16.8973 227.335 16.244C228.548 15.572 229.902 15.236 231.395 15.236C232.888 15.236 234.242 15.572 235.455 16.244C236.668 16.8973 237.62 17.8307 238.311 19.044C239.02 20.2573 239.375 21.6573 239.375 23.244C239.375 24.8307 239.011 26.2307 238.283 27.444C237.574 28.6573 236.603 29.6 235.371 30.272C234.158 30.9253 232.795 31.252 231.283 31.252ZM231.283 27.836C231.992 27.836 232.655 27.668 233.271 27.332C233.906 26.9773 234.41 26.4547 234.783 25.764C235.156 25.0733 235.343 24.2333 235.343 23.244C235.343 21.7693 234.951 20.64 234.167 19.856C233.402 19.0533 232.459 18.652 231.339 18.652C230.219 18.652 229.276 19.0533 228.511 19.856C227.764 20.64 227.391 21.7693 227.391 23.244C227.391 24.7187 227.755 25.8573 228.483 26.66C229.23 27.444 230.163 27.836 231.283 27.836ZM256.894 15.488V31H252.946V29.04C252.442 29.712 251.78 30.244 250.958 30.636C250.156 31.0093 249.278 31.196 248.326 31.196C247.113 31.196 246.04 30.944 245.106 30.44C244.173 29.9173 243.436 29.1613 242.894 28.172C242.372 27.164 242.11 25.9693 242.11 24.588V15.488H246.03V24.028C246.03 25.26 246.338 26.212 246.954 26.884C247.57 27.5373 248.41 27.864 249.474 27.864C250.557 27.864 251.406 27.5373 252.022 26.884C252.638 26.212 252.946 25.26 252.946 24.028V15.488H256.894ZM266.222 10.784C268.163 10.784 269.722 11.316 270.898 12.38C272.093 13.4253 272.69 14.872 272.69 16.72C272.69 18.5493 272.102 19.9493 270.926 20.92C269.75 21.872 268.191 22.348 266.25 22.348L266.138 24.504H262.694L262.554 19.744H263.814C265.438 19.744 266.689 19.5293 267.566 19.1C268.443 18.6707 268.882 17.8867 268.882 16.748C268.882 15.9267 268.639 15.2733 268.154 14.788C267.687 14.3027 267.043 14.06 266.222 14.06C265.363 14.06 264.691 14.2933 264.206 14.76C263.739 15.2267 263.506 15.8707 263.506 16.692H259.81C259.791 15.5533 260.034 14.536 260.538 13.64C261.042 12.744 261.779 12.044 262.75 11.54C263.739 11.036 264.897 10.784 266.222 10.784ZM264.402 31.196C263.693 31.196 263.105 30.9813 262.638 30.552C262.19 30.104 261.966 29.5533 261.966 28.9C261.966 28.2467 262.19 27.7053 262.638 27.276C263.105 26.828 263.693 26.604 264.402 26.604C265.093 26.604 265.662 26.828 266.11 27.276C266.558 27.7053 266.782 28.2467 266.782 28.9C266.782 29.5533 266.558 30.104 266.11 30.552C265.662 30.9813 265.093 31.196 264.402 31.196Z" fill="white"/>
<path d="M136.586 125.414C137.367 126.195 138.633 126.195 139.414 125.414L152.142 112.686C152.923 111.905 152.923 110.639 152.142 109.858C151.361 109.077 150.095 109.077 149.314 109.858L138 121.172L126.686 109.858C125.905 109.077 124.639 109.077 123.858 109.858C123.077 110.639 123.077 111.905 123.858 112.686L136.586 125.414ZM136 60V124H140V60H136Z" fill="white"/>
</svg>
