<svg width="858" height="245" viewBox="0 0 858 245" fill="none" xmlns="http://www.w3.org/2000/svg">
<path d="M27.744 106.896C23.072 106.896 18.912 106.096 15.264 104.496C11.616 102.896 8.736 100.72 6.624 97.9679C4.512 95.1519 3.328 92.0159 3.072 88.5599H19.296C19.488 90.4159 20.352 91.9199 21.888 93.0719C23.424 94.2239 25.312 94.7999 27.552 94.7999C29.6 94.7999 31.168 94.4159 32.256 93.6479C33.408 92.8159 33.984 91.7599 33.984 90.4799C33.984 88.9439 33.184 87.8239 31.584 87.1199C29.984 86.3519 27.392 85.5199 23.808 84.6239C19.968 83.7279 16.768 82.7999 14.208 81.8399C11.648 80.8159 9.44 79.2479 7.584 77.1359C5.728 74.9599 4.8 72.0479 4.8 68.3999C4.8 65.3279 5.632 62.5439 7.296 60.0479C9.024 57.4879 11.52 55.4719 14.784 53.9999C18.112 52.5279 22.048 51.7919 26.592 51.7919C33.312 51.7919 38.592 53.4559 42.432 56.7839C46.336 60.1119 48.576 64.5279 49.152 70.0319H33.984C33.728 68.1759 32.896 66.7039 31.488 65.6159C30.144 64.5279 28.352 63.9839 26.112 63.9839C24.192 63.9839 22.72 64.3679 21.696 65.1359C20.672 65.8399 20.16 66.8319 20.16 68.1119C20.16 69.6479 20.96 70.7999 22.56 71.5679C24.224 72.3359 26.784 73.1039 30.24 73.8719C34.208 74.8959 37.44 75.9199 39.936 76.9439C42.432 77.9039 44.608 79.5039 46.464 81.7439C48.384 83.9199 49.376 86.8639 49.44 90.5759C49.44 93.7119 48.544 96.5279 46.752 99.0239C45.024 101.456 42.496 103.376 39.168 104.784C35.904 106.192 32.096 106.896 27.744 106.896ZM109.979 78.4799C109.979 80.0159 109.883 81.6159 109.691 83.2799H72.5393C72.7953 86.6079 73.8513 89.1679 75.7073 90.9599C77.6273 92.6879 79.9633 93.5519 82.7153 93.5519C86.8113 93.5519 89.6593 91.8239 91.2593 88.3679H108.731C107.835 91.8879 106.203 95.0559 103.835 97.8719C101.531 100.688 98.6193 102.896 95.0993 104.496C91.5793 106.096 87.6433 106.896 83.2913 106.896C78.0433 106.896 73.3713 105.776 69.2753 103.536C65.1793 101.296 61.9793 98.0959 59.6753 93.9359C57.3713 89.7759 56.2193 84.9119 56.2193 79.3439C56.2193 73.7759 57.3393 68.9119 59.5793 64.7519C61.8833 60.5919 65.0833 57.3919 69.1793 55.1519C73.2753 52.9119 77.9793 51.7919 83.2913 51.7919C88.4753 51.7919 93.0833 52.8799 97.1153 55.0559C101.147 57.2319 104.283 60.3359 106.523 64.3679C108.827 68.3999 109.979 73.1039 109.979 78.4799ZM93.1793 74.1599C93.1793 71.3439 92.2193 69.1039 90.2993 67.4399C88.3793 65.7759 85.9793 64.9439 83.0993 64.9439C80.3473 64.9439 78.0113 65.7439 76.0913 67.3439C74.2353 68.9439 73.0833 71.2159 72.6353 74.1599H93.1793ZM169.135 78.4799C169.135 80.0159 169.04 81.6159 168.848 83.2799H131.696C131.952 86.6079 133.008 89.1679 134.864 90.9599C136.784 92.6879 139.12 93.5519 141.872 93.5519C145.968 93.5519 148.816 91.8239 150.416 88.3679H167.888C166.992 91.8879 165.36 95.0559 162.992 97.8719C160.688 100.688 157.776 102.896 154.256 104.496C150.736 106.096 146.8 106.896 142.448 106.896C137.2 106.896 132.528 105.776 128.432 103.536C124.336 101.296 121.136 98.0959 118.832 93.9359C116.528 89.7759 115.376 84.9119 115.376 79.3439C115.376 73.7759 116.496 68.9119 118.736 64.7519C121.04 60.5919 124.24 57.3919 128.336 55.1519C132.432 52.9119 137.136 51.7919 142.448 51.7919C147.632 51.7919 152.24 52.8799 156.272 55.0559C160.304 57.2319 163.44 60.3359 165.68 64.3679C167.984 68.3999 169.135 73.1039 169.135 78.4799ZM152.336 74.1599C152.336 71.3439 151.376 69.1039 149.456 67.4399C147.536 65.7759 145.136 64.9439 142.256 64.9439C139.504 64.9439 137.168 65.7439 135.248 67.3439C133.392 68.9439 132.24 71.2159 131.792 74.1599H152.336ZM252.86 52.5599L219.26 131.568H201.596L213.884 104.304L192.091 52.5599H210.428L222.812 86.0639L235.1 52.5599H252.86ZM283.18 106.896C277.932 106.896 273.196 105.776 268.972 103.536C264.812 101.296 261.516 98.0959 259.084 93.9359C256.716 89.7759 255.532 84.9119 255.532 79.3439C255.532 73.8399 256.748 69.0079 259.18 64.8479C261.612 60.6239 264.94 57.3919 269.164 55.1519C273.388 52.9119 278.124 51.7919 283.372 51.7919C288.62 51.7919 293.356 52.9119 297.58 55.1519C301.804 57.3919 305.132 60.6239 307.564 64.8479C309.996 69.0079 311.212 73.8399 311.212 79.3439C311.212 84.8479 309.964 89.7119 307.468 93.9359C305.036 98.0959 301.676 101.296 297.388 103.536C293.164 105.776 288.428 106.896 283.18 106.896ZM283.18 92.6879C286.316 92.6879 288.972 91.5359 291.148 89.2319C293.388 86.9279 294.508 83.6319 294.508 79.3439C294.508 75.0559 293.42 71.7599 291.244 69.4559C289.132 67.1519 286.508 65.9999 283.372 65.9999C280.172 65.9999 277.516 67.1519 275.404 69.4559C273.292 71.6959 272.236 74.9919 272.236 79.3439C272.236 83.6319 273.26 86.9279 275.308 89.2319C277.42 91.5359 280.044 92.6879 283.18 92.6879ZM372.817 52.5599V106.128H356.401V98.8319C354.737 101.2 352.465 103.12 349.585 104.592C346.769 106 343.633 106.704 340.177 106.704C336.081 106.704 332.465 105.808 329.329 104.016C326.193 102.16 323.761 99.5039 322.033 96.0479C320.305 92.5919 319.441 88.5279 319.441 83.8559V52.5599H335.761V81.6479C335.761 85.2319 336.689 88.0159 338.545 89.9999C340.401 91.9839 342.897 92.9759 346.033 92.9759C349.233 92.9759 351.761 91.9839 353.617 89.9999C355.473 88.0159 356.401 85.2319 356.401 81.6479V52.5599H372.817ZM401.688 79.2479C401.688 73.7439 402.712 68.9119 404.76 64.7519C406.872 60.5919 409.72 57.3919 413.304 55.1519C416.888 52.9119 420.888 51.7919 425.304 51.7919C429.08 51.7919 432.376 52.5599 435.192 54.0959C438.072 55.6319 440.28 57.6479 441.816 60.1439V52.5599H458.232V106.128H441.816V98.5439C440.216 101.04 437.976 103.056 435.096 104.592C432.28 106.128 428.984 106.896 425.208 106.896C420.856 106.896 416.888 105.776 413.304 103.536C409.72 101.232 406.872 97.9999 404.76 93.8399C402.712 89.6159 401.688 84.7519 401.688 79.2479ZM441.816 79.3439C441.816 75.2479 440.664 72.0159 438.36 69.6479C436.12 67.2799 433.368 66.0959 430.104 66.0959C426.84 66.0959 424.056 67.2799 421.752 69.6479C419.512 71.9519 418.392 75.1519 418.392 79.2479C418.392 83.3439 419.512 86.6079 421.752 89.0399C424.056 91.4079 426.84 92.5919 430.104 92.5919C433.368 92.5919 436.12 91.4079 438.36 89.0399C440.664 86.6719 441.816 83.4399 441.816 79.3439ZM499.964 92.2079V106.128H491.612C485.66 106.128 481.02 104.688 477.692 101.808C474.364 98.8639 472.7 94.0959 472.7 87.5039V66.1919H466.172V52.5599H472.7V39.5039H489.116V52.5599H499.868V66.1919H489.116V87.6959C489.116 89.2959 489.5 90.4479 490.268 91.1519C491.036 91.8559 492.316 92.2079 494.108 92.2079H499.964Z" fill="white"/>
<path d="M295.448 178.48C295.448 180.016 295.352 181.616 295.16 183.28H258.008C258.264 186.608 259.32 189.168 261.176 190.96C263.096 192.688 265.432 193.552 268.184 193.552C272.28 193.552 275.128 191.824 276.728 188.368H294.2C293.304 191.888 291.672 195.056 289.304 197.872C287 200.688 284.088 202.896 280.568 204.496C277.048 206.096 273.112 206.896 268.76 206.896C263.512 206.896 258.84 205.776 254.744 203.536C250.648 201.296 247.448 198.096 245.144 193.936C242.84 189.776 241.688 184.912 241.688 179.344C241.688 173.776 242.808 168.912 245.048 164.752C247.352 160.592 250.552 157.392 254.648 155.152C258.744 152.912 263.448 151.792 268.76 151.792C273.944 151.792 278.552 152.88 282.584 155.056C286.616 157.232 289.752 160.336 291.992 164.368C294.296 168.4 295.448 173.104 295.448 178.48ZM278.648 174.16C278.648 171.344 277.688 169.104 275.768 167.44C273.848 165.776 271.448 164.944 268.568 164.944C265.816 164.944 263.48 165.744 261.56 167.344C259.704 168.944 258.552 171.216 258.104 174.16H278.648ZM325.9 206.896C321.228 206.896 317.068 206.096 313.42 204.496C309.772 202.896 306.892 200.72 304.78 197.968C302.668 195.152 301.484 192.016 301.228 188.56H317.452C317.644 190.416 318.508 191.92 320.044 193.072C321.58 194.224 323.468 194.8 325.708 194.8C327.756 194.8 329.324 194.416 330.412 193.648C331.564 192.816 332.14 191.76 332.14 190.48C332.14 188.944 331.34 187.824 329.74 187.12C328.14 186.352 325.548 185.52 321.964 184.624C318.124 183.728 314.924 182.8 312.364 181.84C309.804 180.816 307.596 179.248 305.74 177.136C303.884 174.96 302.956 172.048 302.956 168.4C302.956 165.328 303.788 162.544 305.452 160.048C307.18 157.488 309.676 155.472 312.94 154C316.268 152.528 320.204 151.792 324.748 151.792C331.468 151.792 336.748 153.456 340.588 156.784C344.492 160.112 346.732 164.528 347.308 170.032H332.14C331.884 168.176 331.052 166.704 329.644 165.616C328.3 164.528 326.508 163.984 324.268 163.984C322.348 163.984 320.876 164.368 319.852 165.136C318.828 165.84 318.316 166.832 318.316 168.112C318.316 169.648 319.116 170.8 320.716 171.568C322.38 172.336 324.94 173.104 328.396 173.872C332.364 174.896 335.596 175.92 338.092 176.944C340.588 177.904 342.764 179.504 344.62 181.744C346.54 183.92 347.532 186.864 347.596 190.576C347.596 193.712 346.7 196.528 344.908 199.024C343.18 201.456 340.652 203.376 337.324 204.784C334.06 206.192 330.252 206.896 325.9 206.896ZM410.536 152.56V206.128H394.12V198.832C392.456 201.2 390.184 203.12 387.304 204.592C384.488 206 381.352 206.704 377.896 206.704C373.8 206.704 370.184 205.808 367.048 204.016C363.912 202.16 361.48 199.504 359.752 196.048C358.024 192.592 357.16 188.528 357.16 183.856V152.56H373.48V181.648C373.48 185.232 374.408 188.016 376.264 190C378.12 191.984 380.616 192.976 383.752 192.976C386.952 192.976 389.48 191.984 391.336 190C393.192 188.016 394.12 185.232 394.12 181.648V152.56H410.536ZM490.679 151.984C497.335 151.984 502.615 154 506.519 158.032C510.487 162.064 512.471 167.664 512.471 174.832V206.128H496.151V177.04C496.151 173.584 495.223 170.928 493.367 169.072C491.575 167.152 489.079 166.192 485.879 166.192C482.679 166.192 480.151 167.152 478.295 169.072C476.503 170.928 475.607 173.584 475.607 177.04V206.128H459.287V177.04C459.287 173.584 458.359 170.928 456.503 169.072C454.711 167.152 452.215 166.192 449.015 166.192C445.815 166.192 443.287 167.152 441.431 169.072C439.639 170.928 438.743 173.584 438.743 177.04V206.128H422.327V152.56H438.743V159.28C440.407 157.04 442.583 155.28 445.271 154C447.959 152.656 450.999 151.984 454.391 151.984C458.423 151.984 462.007 152.848 465.143 154.576C468.343 156.304 470.839 158.768 472.631 161.968C474.487 159.024 477.015 156.624 480.215 154.768C483.415 152.912 486.903 151.984 490.679 151.984ZM592.304 151.984C598.96 151.984 604.24 154 608.144 158.032C612.112 162.064 614.096 167.664 614.096 174.832V206.128H597.776V177.04C597.776 173.584 596.848 170.928 594.992 169.072C593.2 167.152 590.704 166.192 587.504 166.192C584.304 166.192 581.776 167.152 579.92 169.072C578.128 170.928 577.232 173.584 577.232 177.04V206.128H560.912V177.04C560.912 173.584 559.984 170.928 558.128 169.072C556.336 167.152 553.84 166.192 550.64 166.192C547.44 166.192 544.912 167.152 543.056 169.072C541.264 170.928 540.368 173.584 540.368 177.04V206.128H523.952V152.56H540.368V159.28C542.032 157.04 544.208 155.28 546.896 154C549.584 152.656 552.624 151.984 556.016 151.984C560.048 151.984 563.632 152.848 566.768 154.576C569.968 156.304 572.464 158.768 574.256 161.968C576.112 159.024 578.64 156.624 581.84 154.768C585.04 152.912 588.528 151.984 592.304 151.984ZM633.833 146.992C630.953 146.992 628.585 146.16 626.729 144.496C624.937 142.768 624.041 140.656 624.041 138.16C624.041 135.6 624.937 133.488 626.729 131.824C628.585 130.096 630.953 129.232 633.833 129.232C636.649 129.232 638.953 130.096 640.745 131.824C642.601 133.488 643.529 135.6 643.529 138.16C643.529 140.656 642.601 142.768 640.745 144.496C638.953 146.16 636.649 146.992 633.833 146.992ZM641.993 152.56V206.128H625.577V152.56H641.993ZM683.746 192.208V206.128H675.394C669.442 206.128 664.802 204.688 661.474 201.808C658.146 198.864 656.482 194.096 656.482 187.504V166.192H649.954V152.56H656.482V139.504H672.898V152.56H683.65V166.192H672.898V187.696C672.898 189.296 673.282 190.448 674.05 191.152C674.818 191.856 676.098 192.208 677.89 192.208H683.746ZM696.634 138.736H713.434L702.682 164.464H691.642L696.634 138.736ZM720.869 192.976C723.045 191.248 724.037 190.448 723.845 190.576C730.117 185.392 735.045 181.136 738.629 177.808C742.277 174.48 745.349 170.992 747.845 167.344C750.341 163.696 751.589 160.144 751.589 156.688C751.589 154.064 750.981 152.016 749.765 150.544C748.549 149.072 746.725 148.336 744.293 148.336C741.861 148.336 739.941 149.264 738.533 151.12C737.189 152.912 736.517 155.472 736.517 158.8H720.677C720.805 153.36 721.957 148.816 724.133 145.168C726.373 141.52 729.285 138.832 732.869 137.104C736.517 135.376 740.549 134.512 744.965 134.512C752.581 134.512 758.309 136.464 762.149 140.368C766.053 144.272 768.005 149.36 768.005 155.632C768.005 162.48 765.669 168.848 760.997 174.736C756.325 180.56 750.373 186.256 743.141 191.824H769.061V205.168H720.869V192.976ZM776.865 155.824C777.121 148.976 779.361 143.696 783.585 139.984C787.809 136.272 793.537 134.416 800.769 134.416C805.569 134.416 809.665 135.248 813.057 136.912C816.513 138.576 819.105 140.848 820.833 143.728C822.625 146.608 823.521 149.84 823.521 153.424C823.521 157.648 822.465 161.104 820.353 163.792C818.241 166.416 815.777 168.208 812.961 169.168V169.552C816.609 170.768 819.489 172.784 821.601 175.6C823.713 178.416 824.769 182.032 824.769 186.448C824.769 190.416 823.841 193.936 821.985 197.008C820.193 200.016 817.537 202.384 814.017 204.112C810.561 205.84 806.433 206.704 801.633 206.704C793.953 206.704 787.809 204.816 783.201 201.04C778.657 197.264 776.257 191.568 776.001 183.952H791.937C792.001 186.768 792.801 189.008 794.337 190.672C795.873 192.272 798.113 193.072 801.057 193.072C803.553 193.072 805.473 192.368 806.817 190.96C808.225 189.488 808.929 187.568 808.929 185.2C808.929 182.128 807.937 179.92 805.953 178.576C804.033 177.168 800.929 176.464 796.641 176.464H793.569V163.12H796.641C799.905 163.12 802.529 162.576 804.513 161.488C806.561 160.336 807.585 158.32 807.585 155.44C807.585 153.136 806.945 151.344 805.665 150.064C804.385 148.784 802.625 148.144 800.385 148.144C797.953 148.144 796.129 148.88 794.913 150.352C793.761 151.824 793.089 153.648 792.897 155.824H776.865ZM843.726 206.896C840.846 206.896 838.478 206.064 836.622 204.4C834.83 202.672 833.934 200.56 833.934 198.064C833.934 195.504 834.83 193.36 836.622 191.632C838.478 189.904 840.846 189.04 843.726 189.04C846.542 189.04 848.846 189.904 850.638 191.632C852.494 193.36 853.422 195.504 853.422 198.064C853.422 200.56 852.494 202.672 850.638 204.4C848.846 206.064 846.542 206.896 843.726 206.896Z" fill="white"/>
<path d="M209.837 180.415C210.813 179.439 210.813 177.856 209.837 176.88L193.927 160.97C192.951 159.993 191.368 159.993 190.391 160.97C189.415 161.946 189.415 163.529 190.391 164.505L204.534 178.647L190.391 192.79C189.415 193.766 189.415 195.349 190.391 196.325C191.368 197.301 192.951 197.301 193.927 196.325L209.837 180.415ZM28.9323 181.147H208.069V176.147H28.9323V181.147Z" fill="#F9D182"/>
</svg>
