<svg xmlns="http://www.w3.org/2000/svg" xmlns:xlink="http://www.w3.org/1999/xlink" width="858" zoomAndPan="magnify" viewBox="0 0 643.5 183.750001" height="245" preserveAspectRatio="xMidYMid meet" version="1.0"><defs><g/><clipPath id="450b457bb2"><path d="M 85 109.078125 L 256 109.078125 L 256 156 L 85 156 Z M 85 109.078125 " clip-rule="nonzero"/></clipPath></defs><g clip-path="url(#450b457bb2)"><path fill="#ffffff" d="M 87.140625 110.496094 C 87.050781 110.617188 87.039062 110.75 87.097656 110.890625 C 86.75 111.285156 85.957031 110.980469 85.820312 111.707031 C 84.65625 112.863281 85.097656 114.042969 85.789062 115.210938 C 87.738281 118.476562 90.179688 121.363281 92.796875 124.097656 C 102.1875 133.894531 113.199219 141.28125 125.640625 146.800781 C 147.355469 156.441406 169.769531 157.777344 192.746094 153.066406 C 203.398438 150.886719 213.46875 146.890625 223.355469 142.429688 C 229.164062 139.808594 234.792969 136.847656 240.503906 134.019531 C 240.664062 133.828125 240.816406 133.636719 240.976562 133.445312 C 241.257812 133.433594 241.570312 133.339844 241.804688 133.441406 C 241.804688 133.441406 241.804688 133.441406 241.808594 133.445312 C 241.988281 133.53125 241.867188 133.785156 241.660156 133.886719 C 240.554688 136.121094 239.011719 138.046875 237.363281 139.890625 C 236.234375 141.15625 235.238281 142.460938 234.648438 144.058594 C 232.199219 146.757812 232.117188 149.648438 234.296875 152.160156 C 241.089844 149.550781 245.234375 144.183594 249.003906 138.386719 C 250.40625 136.230469 251.949219 134.175781 253.460938 132.09375 C 257.085938 127.117188 256.28125 127.632812 254.273438 123.046875 C 253.828125 122.019531 253.148438 121.113281 252.378906 120.285156 C 252.097656 119.976562 251.808594 119.722656 251.367188 119.722656 C 250.789062 118.578125 249.714844 118.566406 248.664062 118.605469 C 245.542969 118.71875 242.429688 118.875 239.3125 119.015625 C 238.65625 118.65625 237.980469 118.765625 237.300781 118.90625 C 236.660156 118.523438 235.972656 118.644531 235.292969 118.734375 C 234.882812 118.386719 234.371094 118.515625 233.90625 118.453125 C 227.570312 117.566406 221.425781 115.984375 215.570312 113.359375 C 215.128906 113.164062 214.675781 113.003906 214.226562 112.824219 C 213.695312 112.609375 213.09375 112.359375 212.667969 112.855469 C 212.347656 113.234375 212.4375 113.914062 212.71875 114.226562 C 213.964844 115.621094 214.148438 117.539062 215.230469 118.988281 C 215.710938 119.632812 216.417969 120.027344 217.140625 120.417969 C 222.707031 123.449219 228.65625 125.414062 234.828125 126.777344 C 235.378906 126.898438 235.960938 126.9375 236.46875 127.167969 C 237.054688 127.4375 236.890625 127.933594 236.59375 128.375 C 235.953125 128.296875 235.5 128.554688 235.203125 129.109375 C 234.609375 129.152344 234.03125 129.242188 233.730469 129.859375 C 233.585938 129.789062 233.488281 129.835938 233.441406 129.988281 C 232.875 130.015625 232.347656 130.128906 232.039062 130.683594 C 231.65625 130.785156 231.253906 130.835938 230.894531 131.003906 C 226.953125 132.800781 223.046875 134.664062 219.089844 136.421875 C 215.496094 138.015625 211.855469 139.496094 208.238281 141.019531 C 207.230469 141.308594 206.21875 141.554688 205.230469 141.882812 C 195.609375 144.988281 185.757812 146.898438 175.644531 147.332031 C 172.03125 147.484375 168.417969 147.527344 164.804688 147.617188 C 164.121094 147.234375 163.414062 147.386719 162.703125 147.527344 C 162.058594 147.144531 161.382812 147.28125 160.707031 147.40625 C 160.117188 147 159.476562 147.171875 158.839844 147.234375 C 158.476562 146.929688 158.074219 146.949219 157.65625 147.09375 C 157.515625 146.992188 157.375 146.984375 157.226562 147.082031 C 156.816406 146.75 156.3125 146.863281 155.851562 146.789062 C 153.570312 146.398438 151.230469 146.417969 148.996094 145.75 C 148.796875 145.933594 148.136719 146.027344 148.945312 146.367188 C 149.484375 146.597656 149.515625 146.757812 149.367188 146.890625 C 149.238281 147.003906 148.976562 147.101562 148.785156 147.195312 C 141.621094 145.742188 134.722656 143.445312 127.972656 140.695312 C 127.371094 140.382812 126.761719 140.070312 126.160156 139.757812 C 122.558594 137.886719 118.953125 136.019531 115.351562 134.15625 C 115.28125 134 115.179688 133.898438 115.050781 133.84375 C 114.960938 133.804688 114.867188 133.785156 114.757812 133.785156 C 114.640625 133.535156 114.441406 133.421875 114.175781 133.425781 C 114.066406 133.171875 113.867188 133.058594 113.589844 133.070312 C 113.488281 132.808594 113.289062 132.695312 113.007812 132.707031 C 112.90625 132.445312 112.714844 132.316406 112.433594 132.335938 C 112.335938 132.070312 112.144531 131.949219 111.863281 131.964844 L 111.855469 131.960938 C 111.765625 131.699219 111.574219 131.570312 111.296875 131.589844 L 111.285156 131.582031 C 111.113281 131.449219 110.925781 131.320312 110.734375 131.207031 L 110.714844 131.195312 C 110.625 130.933594 110.445312 130.804688 110.164062 130.816406 L 110.144531 130.804688 C 110.054688 130.542969 109.875 130.414062 109.59375 130.429688 L 109.574219 130.414062 C 109.574219 130.414062 109.566406 130.410156 109.566406 130.410156 C 109.566406 130.410156 109.574219 130.414062 109.574219 130.414062 C 109.492188 130.148438 109.304688 130.019531 109.023438 130.03125 L 109.011719 130.027344 C 108.929688 129.757812 108.742188 129.632812 108.460938 129.644531 L 108.453125 129.636719 C 108.363281 129.371094 108.179688 129.234375 107.894531 129.242188 C 106.257812 127.921875 104.625 126.601562 102.984375 125.28125 C 101.914062 124.859375 101.175781 123.996094 100.351562 123.261719 C 100.382812 123.136719 100.441406 123.035156 100.511719 122.945312 C 100.621094 122.804688 100.761719 122.707031 100.953125 122.652344 C 100.390625 122.03125 99.871094 121.367188 99.054688 121.042969 C 98.800781 120.964844 98.5625 120.859375 98.378906 120.652344 C 98.601562 120.78125 98.824219 120.914062 99.054688 121.042969 C 98.914062 120.808594 98.753906 120.601562 98.453125 120.648438 C 98.378906 120.234375 98.113281 119.984375 97.730469 119.832031 C 97.6875 119.5625 97.542969 119.398438 97.257812 119.382812 C 97.140625 119.128906 96.988281 118.929688 96.6875 118.898438 C 96.648438 118.765625 96.578125 118.664062 96.4375 118.605469 C 95.996094 117.902344 95.429688 117.328125 94.726562 116.890625 C 94.386719 116.410156 94.058594 115.917969 93.503906 115.65625 C 93.398438 115.273438 93.085938 115.070312 92.796875 114.847656 C 91.464844 112.957031 89.792969 111.324219 88.773438 109.085938 C 88.21875 109.75 87.28125 109.632812 87.140625 110.496094 Z M 233.527344 130.460938 C 233.519531 130.460938 233.519531 130.460938 233.515625 130.460938 C 233.515625 130.46875 233.519531 130.46875 233.519531 130.46875 C 233.515625 130.46875 233.507812 130.460938 233.507812 130.460938 C 233.507812 130.460938 233.515625 130.460938 233.515625 130.460938 C 233.515625 130.453125 233.515625 130.449219 233.507812 130.441406 C 233.519531 130.449219 233.519531 130.453125 233.527344 130.460938 Z M 108.359375 131.195312 C 108.394531 131.234375 108.433594 131.269531 108.472656 131.308594 C 108.460938 131.304688 108.449219 131.296875 108.433594 131.289062 C 108.394531 131.265625 108.359375 131.238281 108.320312 131.207031 C 108.324219 131.207031 108.339844 131.199219 108.359375 131.195312 Z M 115.3125 134.15625 C 115.3125 134.160156 115.308594 134.160156 115.308594 134.167969 C 115.296875 134.179688 115.289062 134.199219 115.277344 134.210938 L 115.230469 134.257812 L 115.308594 134.160156 C 115.308594 134.15625 115.300781 134.15625 115.300781 134.148438 C 115.300781 134.15625 115.308594 134.15625 115.3125 134.15625 Z M 108.121094 131.285156 C 108.183594 131.257812 108.25 131.234375 108.304688 131.214844 C 108.34375 131.238281 108.382812 131.265625 108.421875 131.289062 C 108.332031 131.246094 108.230469 131.238281 108.121094 131.285156 Z M 108.671875 131.476562 C 108.714844 131.507812 108.761719 131.539062 108.800781 131.570312 C 108.800781 131.578125 108.804688 131.578125 108.804688 131.582031 C 108.761719 131.546875 108.714844 131.507812 108.671875 131.476562 Z M 88.363281 114.6875 C 88.359375 114.6875 88.351562 114.679688 88.347656 114.679688 C 88.347656 114.679688 88.339844 114.675781 88.339844 114.675781 C 88.339844 114.667969 88.332031 114.664062 88.332031 114.65625 C 88.347656 114.664062 88.351562 114.675781 88.363281 114.6875 Z M 88.960938 115.523438 C 88.960938 115.535156 88.960938 115.550781 88.972656 115.554688 C 88.972656 115.542969 88.960938 115.53125 88.960938 115.523438 Z M 97.960938 120.609375 C 97.917969 120.628906 97.871094 120.652344 97.828125 120.691406 C 97.820312 120.660156 97.8125 120.628906 97.808594 120.597656 C 97.859375 120.601562 97.910156 120.601562 97.960938 120.609375 Z M 96.8125 119.199219 C 96.742188 119.148438 96.691406 119.070312 96.660156 118.976562 C 96.660156 118.976562 96.660156 118.976562 96.667969 118.976562 C 96.707031 119.066406 96.75 119.140625 96.8125 119.199219 Z M 96.8125 119.199219 " fill-opacity="1" fill-rule="nonzero"/></g><path fill="#ffffff" d="M 110.695312 131.195312 C 110.882812 131.320312 111.066406 131.441406 111.246094 131.570312 C 111.15625 131.304688 110.972656 131.179688 110.695312 131.195312 Z M 110.695312 131.195312 " fill-opacity="1" fill-rule="nonzero"/><g fill="#ffffff" fill-opacity="1"><g transform="translate(31.82246, 75.382478)"><g><path d="M 14.609375 0.609375 C 12.597656 0.609375 10.734375 0.34375 9.015625 -0.1875 C 7.304688 -0.71875 5.859375 -1.445312 4.671875 -2.375 C 3.492188 -3.3125 2.660156 -4.359375 2.171875 -5.515625 L 4.96875 -8.421875 L 5.578125 -8.421875 C 6.617188 -6.835938 7.875 -5.640625 9.34375 -4.828125 C 10.820312 -4.023438 12.578125 -3.625 14.609375 -3.625 C 16.972656 -3.625 18.769531 -4.082031 20 -5 C 21.226562 -5.925781 21.84375 -7.210938 21.84375 -8.859375 C 21.84375 -10.117188 21.46875 -11.160156 20.71875 -11.984375 C 19.976562 -12.804688 18.773438 -13.421875 17.109375 -13.828125 L 11.703125 -15.15625 C 8.816406 -15.851562 6.707031 -16.957031 5.375 -18.46875 C 4.050781 -19.976562 3.390625 -21.847656 3.390625 -24.078125 C 3.390625 -25.816406 3.835938 -27.332031 4.734375 -28.625 C 5.628906 -29.914062 6.910156 -30.90625 8.578125 -31.59375 C 10.253906 -32.289062 12.242188 -32.640625 14.546875 -32.640625 C 17.492188 -32.640625 19.8125 -32.226562 21.5 -31.40625 C 23.195312 -30.582031 24.519531 -29.4375 25.46875 -27.96875 L 22.796875 -25.359375 L 22.21875 -25.359375 C 21.195312 -26.535156 20.078125 -27.382812 18.859375 -27.90625 C 17.648438 -28.4375 16.210938 -28.703125 14.546875 -28.703125 C 12.441406 -28.703125 10.828125 -28.320312 9.703125 -27.5625 C 8.578125 -26.8125 8.015625 -25.71875 8.015625 -24.28125 C 8.015625 -22.976562 8.410156 -21.929688 9.203125 -21.140625 C 9.992188 -20.347656 11.378906 -19.710938 13.359375 -19.234375 L 18.671875 -17.953125 C 21.460938 -17.296875 23.476562 -16.203125 24.71875 -14.671875 C 25.957031 -13.140625 26.578125 -11.222656 26.578125 -8.921875 C 26.578125 -7.035156 26.128906 -5.375 25.234375 -3.9375 C 24.347656 -2.507812 23.003906 -1.394531 21.203125 -0.59375 C 19.398438 0.207031 17.203125 0.609375 14.609375 0.609375 Z M 14.609375 0.609375 "/></g></g></g><g fill="#ffffff" fill-opacity="1"><g transform="translate(61.436756, 75.382478)"><g><path d="M 30.53125 -14.921875 L 8.515625 -14.921875 C 8.648438 -11.035156 9.582031 -8.179688 11.3125 -6.359375 C 13.039062 -4.535156 15.414062 -3.625 18.4375 -3.625 C 20.726562 -3.625 22.566406 -4.03125 23.953125 -4.84375 C 25.347656 -5.664062 26.445312 -6.945312 27.25 -8.6875 L 27.859375 -8.6875 L 30.9375 -6.859375 C 30 -4.535156 28.507812 -2.707031 26.46875 -1.375 C 24.425781 -0.0507812 21.75 0.609375 18.4375 0.609375 C 15.34375 0.609375 12.679688 0 10.453125 -1.21875 C 8.222656 -2.4375 6.507812 -4.285156 5.3125 -6.765625 C 4.113281 -9.242188 3.515625 -12.320312 3.515625 -16 C 3.515625 -19.644531 4.144531 -22.710938 5.40625 -25.203125 C 6.675781 -27.703125 8.410156 -29.566406 10.609375 -30.796875 C 12.804688 -32.023438 15.320312 -32.640625 18.15625 -32.640625 C 22.257812 -32.640625 25.460938 -31.484375 27.765625 -29.171875 C 30.066406 -26.859375 31.226562 -23.425781 31.25 -18.875 C 31.25 -17.09375 31.210938 -15.894531 31.140625 -15.28125 Z M 26.578125 -18.875 C 26.492188 -22.28125 25.734375 -24.757812 24.296875 -26.3125 C 22.867188 -27.863281 20.820312 -28.640625 18.15625 -28.640625 C 15.34375 -28.640625 13.140625 -27.859375 11.546875 -26.296875 C 9.953125 -24.742188 8.976562 -22.269531 8.625 -18.875 Z M 26.578125 -18.875 "/></g></g></g><g fill="#ffffff" fill-opacity="1"><g transform="translate(95.580299, 75.382478)"><g><path d="M 30.53125 -14.921875 L 8.515625 -14.921875 C 8.648438 -11.035156 9.582031 -8.179688 11.3125 -6.359375 C 13.039062 -4.535156 15.414062 -3.625 18.4375 -3.625 C 20.726562 -3.625 22.566406 -4.03125 23.953125 -4.84375 C 25.347656 -5.664062 26.445312 -6.945312 27.25 -8.6875 L 27.859375 -8.6875 L 30.9375 -6.859375 C 30 -4.535156 28.507812 -2.707031 26.46875 -1.375 C 24.425781 -0.0507812 21.75 0.609375 18.4375 0.609375 C 15.34375 0.609375 12.679688 0 10.453125 -1.21875 C 8.222656 -2.4375 6.507812 -4.285156 5.3125 -6.765625 C 4.113281 -9.242188 3.515625 -12.320312 3.515625 -16 C 3.515625 -19.644531 4.144531 -22.710938 5.40625 -25.203125 C 6.675781 -27.703125 8.410156 -29.566406 10.609375 -30.796875 C 12.804688 -32.023438 15.320312 -32.640625 18.15625 -32.640625 C 22.257812 -32.640625 25.460938 -31.484375 27.765625 -29.171875 C 30.066406 -26.859375 31.226562 -23.425781 31.25 -18.875 C 31.25 -17.09375 31.210938 -15.894531 31.140625 -15.28125 Z M 26.578125 -18.875 C 26.492188 -22.28125 25.734375 -24.757812 24.296875 -26.3125 C 22.867188 -27.863281 20.820312 -28.640625 18.15625 -28.640625 C 15.34375 -28.640625 13.140625 -27.859375 11.546875 -26.296875 C 9.953125 -24.742188 8.976562 -22.269531 8.625 -18.875 Z M 26.578125 -18.875 "/></g></g></g><g fill="#ffffff" fill-opacity="1"><g transform="translate(129.723841, 75.382478)"><g/></g></g><g fill="#ffffff" fill-opacity="1"><g transform="translate(144.29872, 75.382478)"><g><path d="M 6.421875 13.59375 C 5.335938 13.59375 4.320312 13.5 3.375 13.3125 C 2.4375 13.132812 1.628906 12.878906 0.953125 12.546875 L 1.828125 8.796875 L 2.359375 8.625 C 2.816406 8.851562 3.394531 9.050781 4.09375 9.21875 C 4.789062 9.382812 5.507812 9.46875 6.25 9.46875 C 7.539062 9.46875 8.613281 9.289062 9.46875 8.9375 C 10.320312 8.59375 11.050781 8.019531 11.65625 7.21875 C 12.269531 6.414062 12.835938 5.304688 13.359375 3.890625 L 14.5 0.75 L 1.625 -32.03125 L 6.734375 -32.03125 L 16.8125 -5.890625 L 17.375 -5.890625 L 27.125 -32.03125 L 31.984375 -32.03125 L 17.65625 5.03125 C 16.84375 7.082031 15.929688 8.726562 14.921875 9.96875 C 13.921875 11.21875 12.734375 12.132812 11.359375 12.71875 C 9.984375 13.300781 8.335938 13.59375 6.421875 13.59375 Z M 6.421875 13.59375 "/></g></g></g><g fill="#ffffff" fill-opacity="1"><g transform="translate(177.454864, 75.382478)"><g><path d="M 18.390625 0.609375 C 15.367188 0.609375 12.738281 -0.0234375 10.5 -1.296875 C 8.257812 -2.578125 6.535156 -4.460938 5.328125 -6.953125 C 4.117188 -9.441406 3.515625 -12.457031 3.515625 -16 C 3.515625 -19.539062 4.117188 -22.5625 5.328125 -25.0625 C 6.535156 -27.5625 8.257812 -29.445312 10.5 -30.71875 C 12.738281 -32 15.367188 -32.640625 18.390625 -32.640625 C 21.410156 -32.640625 24.035156 -32 26.265625 -30.71875 C 28.503906 -29.445312 30.226562 -27.5625 31.4375 -25.0625 C 32.644531 -22.5625 33.25 -19.539062 33.25 -16 C 33.25 -12.457031 32.644531 -9.441406 31.4375 -6.953125 C 30.226562 -4.460938 28.503906 -2.578125 26.265625 -1.296875 C 24.035156 -0.0234375 21.410156 0.609375 18.390625 0.609375 Z M 18.390625 -3.625 C 21.578125 -3.625 24.019531 -4.628906 25.71875 -6.640625 C 27.414062 -8.660156 28.265625 -11.78125 28.265625 -16 C 28.265625 -20.238281 27.414062 -23.363281 25.71875 -25.375 C 24.019531 -27.394531 21.578125 -28.40625 18.390625 -28.40625 C 15.191406 -28.40625 12.738281 -27.390625 11.03125 -25.359375 C 9.332031 -23.335938 8.484375 -20.21875 8.484375 -16 C 8.484375 -11.78125 9.332031 -8.660156 11.03125 -6.640625 C 12.738281 -4.628906 15.191406 -3.625 18.390625 -3.625 Z M 18.390625 -3.625 "/></g></g></g><g fill="#ffffff" fill-opacity="1"><g transform="translate(214.211432, 75.382478)"><g><path d="M 15.828125 0.609375 C 12.203125 0.609375 9.503906 -0.347656 7.734375 -2.265625 C 5.960938 -4.179688 5.078125 -6.988281 5.078125 -10.6875 L 5.078125 -32.03125 L 9.8125 -32.03125 L 9.8125 -10.8125 C 9.8125 -5.945312 12.097656 -3.515625 16.671875 -3.515625 C 19.578125 -3.515625 21.867188 -4.460938 23.546875 -6.359375 C 25.234375 -8.253906 26.078125 -11.332031 26.078125 -15.59375 L 26.078125 -32.03125 L 30.8125 -32.03125 L 30.8125 0 L 26.34375 0 L 26.34375 -5.03125 L 25.734375 -5.171875 C 24.628906 -3.210938 23.304688 -1.757812 21.765625 -0.8125 C 20.222656 0.132812 18.242188 0.609375 15.828125 0.609375 Z M 15.828125 0.609375 "/></g></g></g><g fill="#ffffff" fill-opacity="1"><g transform="translate(274.8011, 141.597309)"><g><path d="M 13.21875 0.609375 C 10.0625 0.609375 7.597656 -0.210938 5.828125 -1.859375 C 4.054688 -3.503906 3.171875 -5.859375 3.171875 -8.921875 C 3.171875 -10.816406 3.5625 -12.414062 4.34375 -13.71875 C 5.125 -15.03125 6.335938 -16.097656 7.984375 -16.921875 C 9.628906 -17.742188 11.78125 -18.378906 14.4375 -18.828125 C 16.757812 -19.210938 18.523438 -19.644531 19.734375 -20.125 C 20.941406 -20.613281 21.753906 -21.15625 22.171875 -21.75 C 22.585938 -22.351562 22.796875 -23.109375 22.796875 -24.015625 C 22.796875 -25.472656 22.296875 -26.585938 21.296875 -27.359375 C 20.304688 -28.128906 18.707031 -28.515625 16.5 -28.515625 C 14.425781 -28.515625 12.648438 -28.113281 11.171875 -27.3125 C 9.691406 -26.507812 8.332031 -25.316406 7.09375 -23.734375 L 6.5 -23.734375 L 4.1875 -27.015625 C 5.539062 -28.734375 7.257812 -30.097656 9.34375 -31.109375 C 11.4375 -32.128906 13.820312 -32.640625 16.5 -32.640625 C 20.269531 -32.640625 23.050781 -31.8125 24.84375 -30.15625 C 26.632812 -28.507812 27.53125 -26.222656 27.53125 -23.296875 L 27.53125 -6.296875 C 27.53125 -4.515625 28.285156 -3.625 29.796875 -3.625 C 30.304688 -3.625 30.789062 -3.710938 31.25 -3.890625 L 31.65625 -3.78125 L 32.21875 -0.5 C 31.863281 -0.257812 31.398438 -0.078125 30.828125 0.046875 C 30.253906 0.171875 29.671875 0.234375 29.078125 0.234375 C 27.316406 0.234375 25.984375 -0.148438 25.078125 -0.921875 C 24.179688 -1.703125 23.609375 -2.847656 23.359375 -4.359375 L 22.75 -4.421875 C 21.832031 -2.734375 20.597656 -1.472656 19.046875 -0.640625 C 17.503906 0.191406 15.5625 0.609375 13.21875 0.609375 Z M 14.265625 -3.171875 C 16.046875 -3.171875 17.585938 -3.582031 18.890625 -4.40625 C 20.203125 -5.226562 21.207031 -6.382812 21.90625 -7.875 C 22.601562 -9.363281 22.953125 -11.085938 22.953125 -13.046875 L 22.953125 -17.109375 L 22.390625 -17.21875 C 21.671875 -16.71875 20.796875 -16.296875 19.765625 -15.953125 C 18.742188 -15.617188 17.316406 -15.316406 15.484375 -15.046875 C 13.617188 -14.796875 12.140625 -14.40625 11.046875 -13.875 C 9.953125 -13.351562 9.171875 -12.691406 8.703125 -11.890625 C 8.242188 -11.085938 8.015625 -10.097656 8.015625 -8.921875 C 8.015625 -7.035156 8.566406 -5.601562 9.671875 -4.625 C 10.773438 -3.65625 12.304688 -3.171875 14.265625 -3.171875 Z M 14.265625 -3.171875 "/></g></g></g><g fill="#ffffff" fill-opacity="1"><g transform="translate(307.550858, 141.597309)"><g><path d="M 21.671875 -5.078125 L 23.171875 -1.6875 C 22.421875 -0.925781 21.429688 -0.351562 20.203125 0.03125 C 18.972656 0.414062 17.640625 0.609375 16.203125 0.609375 C 10.085938 0.609375 7.03125 -2.488281 7.03125 -8.6875 L 7.03125 -28.171875 L 1.453125 -28.171875 L 1.453125 -32.0625 L 7.03125 -32.0625 L 7.03125 -38.828125 L 11.765625 -39.625 L 11.765625 -32.0625 L 22.078125 -32.0625 L 22.078125 -28.171875 L 11.765625 -28.171875 L 11.765625 -9.15625 C 11.765625 -5.46875 13.363281 -3.625 16.5625 -3.625 C 18.300781 -3.625 19.800781 -4.109375 21.0625 -5.078125 Z M 21.671875 -5.078125 "/></g></g></g><g fill="#ffffff" fill-opacity="1"><g transform="translate(331.939102, 141.597309)"><g/></g></g><g fill="#ffffff" fill-opacity="1"><g transform="translate(346.513981, 141.597309)"><g><path d="M 21.671875 -5.078125 L 23.171875 -1.6875 C 22.421875 -0.925781 21.429688 -0.351562 20.203125 0.03125 C 18.972656 0.414062 17.640625 0.609375 16.203125 0.609375 C 10.085938 0.609375 7.03125 -2.488281 7.03125 -8.6875 L 7.03125 -28.171875 L 1.453125 -28.171875 L 1.453125 -32.0625 L 7.03125 -32.0625 L 7.03125 -38.828125 L 11.765625 -39.625 L 11.765625 -32.0625 L 22.078125 -32.0625 L 22.078125 -28.171875 L 11.765625 -28.171875 L 11.765625 -9.15625 C 11.765625 -5.46875 13.363281 -3.625 16.5625 -3.625 C 18.300781 -3.625 19.800781 -4.109375 21.0625 -5.078125 Z M 21.671875 -5.078125 "/></g></g></g><g fill="#ffffff" fill-opacity="1"><g transform="translate(370.524618, 141.597309)"><g><path d="M 30.53125 -14.921875 L 8.515625 -14.921875 C 8.648438 -11.035156 9.582031 -8.179688 11.3125 -6.359375 C 13.039062 -4.535156 15.414062 -3.625 18.4375 -3.625 C 20.726562 -3.625 22.566406 -4.03125 23.953125 -4.84375 C 25.347656 -5.664062 26.445312 -6.945312 27.25 -8.6875 L 27.859375 -8.6875 L 30.9375 -6.859375 C 30 -4.535156 28.507812 -2.707031 26.46875 -1.375 C 24.425781 -0.0507812 21.75 0.609375 18.4375 0.609375 C 15.34375 0.609375 12.679688 0 10.453125 -1.21875 C 8.222656 -2.4375 6.507812 -4.285156 5.3125 -6.765625 C 4.113281 -9.242188 3.515625 -12.320312 3.515625 -16 C 3.515625 -19.644531 4.144531 -22.710938 5.40625 -25.203125 C 6.675781 -27.703125 8.410156 -29.566406 10.609375 -30.796875 C 12.804688 -32.023438 15.320312 -32.640625 18.15625 -32.640625 C 22.257812 -32.640625 25.460938 -31.484375 27.765625 -29.171875 C 30.066406 -26.859375 31.226562 -23.425781 31.25 -18.875 C 31.25 -17.09375 31.210938 -15.894531 31.140625 -15.28125 Z M 26.578125 -18.875 C 26.492188 -22.28125 25.734375 -24.757812 24.296875 -26.3125 C 22.867188 -27.863281 20.820312 -28.640625 18.15625 -28.640625 C 15.34375 -28.640625 13.140625 -27.859375 11.546875 -26.296875 C 9.953125 -24.742188 8.976562 -22.269531 8.625 -18.875 Z M 26.578125 -18.875 "/></g></g></g><g fill="#ffffff" fill-opacity="1"><g transform="translate(404.668161, 141.597309)"><g><path d="M 18.390625 0.609375 C 15.554688 0.609375 13.015625 -0.03125 10.765625 -1.3125 C 8.523438 -2.601562 6.753906 -4.503906 5.453125 -7.015625 C 4.160156 -9.523438 3.515625 -12.519531 3.515625 -16 C 3.515625 -19.507812 4.160156 -22.515625 5.453125 -25.015625 C 6.753906 -27.523438 8.523438 -29.421875 10.765625 -30.703125 C 13.015625 -31.992188 15.554688 -32.640625 18.390625 -32.640625 C 21.773438 -32.640625 24.46875 -32 26.46875 -30.71875 C 28.476562 -29.445312 29.925781 -27.75 30.8125 -25.625 L 27.59375 -23.296875 L 27.015625 -23.296875 C 26.140625 -25.054688 25.019531 -26.347656 23.65625 -27.171875 C 22.289062 -27.992188 20.535156 -28.40625 18.390625 -28.40625 C 16.410156 -28.40625 14.675781 -27.941406 13.1875 -27.015625 C 11.695312 -26.085938 10.539062 -24.691406 9.71875 -22.828125 C 8.894531 -20.972656 8.484375 -18.695312 8.484375 -16 C 8.484375 -13.332031 8.898438 -11.070312 9.734375 -9.21875 C 10.566406 -7.375 11.722656 -5.976562 13.203125 -5.03125 C 14.679688 -4.09375 16.410156 -3.625 18.390625 -3.625 C 20.609375 -3.625 22.445312 -4.128906 23.90625 -5.140625 C 25.375 -6.148438 26.523438 -7.738281 27.359375 -9.90625 L 27.96875 -9.90625 L 31.078125 -8.078125 C 30.242188 -5.378906 28.753906 -3.253906 26.609375 -1.703125 C 24.472656 -0.160156 21.734375 0.609375 18.390625 0.609375 Z M 18.390625 0.609375 "/></g></g></g><g fill="#ffffff" fill-opacity="1"><g transform="translate(437.679391, 141.597309)"><g><path d="M 5.578125 0 L 5.578125 -44.90625 L 10.3125 -44.90625 L 10.3125 -27.484375 L 10.921875 -27.359375 C 13.203125 -30.878906 16.503906 -32.640625 20.828125 -32.640625 C 24.679688 -32.640625 27.472656 -31.65625 29.203125 -29.6875 C 30.929688 -27.726562 31.796875 -24.707031 31.796875 -20.625 L 31.796875 0 L 27.0625 0 L 27.0625 -20.5 C 27.0625 -22.4375 26.816406 -23.988281 26.328125 -25.15625 C 25.835938 -26.332031 25.070312 -27.1875 24.03125 -27.71875 C 23 -28.25 21.640625 -28.515625 19.953125 -28.515625 C 17.046875 -28.515625 14.710938 -27.578125 12.953125 -25.703125 C 11.191406 -23.828125 10.3125 -20.738281 10.3125 -16.4375 L 10.3125 0 Z M 5.578125 0 "/></g></g></g><g fill="#ffffff" fill-opacity="1"><g transform="translate(474.552094, 141.597309)"><g><path d="M 14.609375 0.609375 C 12.597656 0.609375 10.734375 0.34375 9.015625 -0.1875 C 7.304688 -0.71875 5.859375 -1.445312 4.671875 -2.375 C 3.492188 -3.3125 2.660156 -4.359375 2.171875 -5.515625 L 4.96875 -8.421875 L 5.578125 -8.421875 C 6.617188 -6.835938 7.875 -5.640625 9.34375 -4.828125 C 10.820312 -4.023438 12.578125 -3.625 14.609375 -3.625 C 16.972656 -3.625 18.769531 -4.082031 20 -5 C 21.226562 -5.925781 21.84375 -7.210938 21.84375 -8.859375 C 21.84375 -10.117188 21.46875 -11.160156 20.71875 -11.984375 C 19.976562 -12.804688 18.773438 -13.421875 17.109375 -13.828125 L 11.703125 -15.15625 C 8.816406 -15.851562 6.707031 -16.957031 5.375 -18.46875 C 4.050781 -19.976562 3.390625 -21.847656 3.390625 -24.078125 C 3.390625 -25.816406 3.835938 -27.332031 4.734375 -28.625 C 5.628906 -29.914062 6.910156 -30.90625 8.578125 -31.59375 C 10.253906 -32.289062 12.242188 -32.640625 14.546875 -32.640625 C 17.492188 -32.640625 19.8125 -32.226562 21.5 -31.40625 C 23.195312 -30.582031 24.519531 -29.4375 25.46875 -27.96875 L 22.796875 -25.359375 L 22.21875 -25.359375 C 21.195312 -26.535156 20.078125 -27.382812 18.859375 -27.90625 C 17.648438 -28.4375 16.210938 -28.703125 14.546875 -28.703125 C 12.441406 -28.703125 10.828125 -28.320312 9.703125 -27.5625 C 8.578125 -26.8125 8.015625 -25.71875 8.015625 -24.28125 C 8.015625 -22.976562 8.410156 -21.929688 9.203125 -21.140625 C 9.992188 -20.347656 11.378906 -19.710938 13.359375 -19.234375 L 18.671875 -17.953125 C 21.460938 -17.296875 23.476562 -16.203125 24.71875 -14.671875 C 25.957031 -13.140625 26.578125 -11.222656 26.578125 -8.921875 C 26.578125 -7.035156 26.128906 -5.375 25.234375 -3.9375 C 24.347656 -2.507812 23.003906 -1.394531 21.203125 -0.59375 C 19.398438 0.207031 17.203125 0.609375 14.609375 0.609375 Z M 14.609375 0.609375 "/></g></g></g><g fill="#ffffff" fill-opacity="1"><g transform="translate(504.166391, 141.597309)"><g><path d="M 21.671875 -5.078125 L 23.171875 -1.6875 C 22.421875 -0.925781 21.429688 -0.351562 20.203125 0.03125 C 18.972656 0.414062 17.640625 0.609375 16.203125 0.609375 C 10.085938 0.609375 7.03125 -2.488281 7.03125 -8.6875 L 7.03125 -28.171875 L 1.453125 -28.171875 L 1.453125 -32.0625 L 7.03125 -32.0625 L 7.03125 -38.828125 L 11.765625 -39.625 L 11.765625 -32.0625 L 22.078125 -32.0625 L 22.078125 -28.171875 L 11.765625 -28.171875 L 11.765625 -9.15625 C 11.765625 -5.46875 13.363281 -3.625 16.5625 -3.625 C 18.300781 -3.625 19.800781 -4.109375 21.0625 -5.078125 Z M 21.671875 -5.078125 "/></g></g></g><g fill="#ffffff" fill-opacity="1"><g transform="translate(528.554635, 141.597309)"><g><path d="M 13.21875 0.609375 C 10.0625 0.609375 7.597656 -0.210938 5.828125 -1.859375 C 4.054688 -3.503906 3.171875 -5.859375 3.171875 -8.921875 C 3.171875 -10.816406 3.5625 -12.414062 4.34375 -13.71875 C 5.125 -15.03125 6.335938 -16.097656 7.984375 -16.921875 C 9.628906 -17.742188 11.78125 -18.378906 14.4375 -18.828125 C 16.757812 -19.210938 18.523438 -19.644531 19.734375 -20.125 C 20.941406 -20.613281 21.753906 -21.15625 22.171875 -21.75 C 22.585938 -22.351562 22.796875 -23.109375 22.796875 -24.015625 C 22.796875 -25.472656 22.296875 -26.585938 21.296875 -27.359375 C 20.304688 -28.128906 18.707031 -28.515625 16.5 -28.515625 C 14.425781 -28.515625 12.648438 -28.113281 11.171875 -27.3125 C 9.691406 -26.507812 8.332031 -25.316406 7.09375 -23.734375 L 6.5 -23.734375 L 4.1875 -27.015625 C 5.539062 -28.734375 7.257812 -30.097656 9.34375 -31.109375 C 11.4375 -32.128906 13.820312 -32.640625 16.5 -32.640625 C 20.269531 -32.640625 23.050781 -31.8125 24.84375 -30.15625 C 26.632812 -28.507812 27.53125 -26.222656 27.53125 -23.296875 L 27.53125 -6.296875 C 27.53125 -4.515625 28.285156 -3.625 29.796875 -3.625 C 30.304688 -3.625 30.789062 -3.710938 31.25 -3.890625 L 31.65625 -3.78125 L 32.21875 -0.5 C 31.863281 -0.257812 31.398438 -0.078125 30.828125 0.046875 C 30.253906 0.171875 29.671875 0.234375 29.078125 0.234375 C 27.316406 0.234375 25.984375 -0.148438 25.078125 -0.921875 C 24.179688 -1.703125 23.609375 -2.847656 23.359375 -4.359375 L 22.75 -4.421875 C 21.832031 -2.734375 20.597656 -1.472656 19.046875 -0.640625 C 17.503906 0.191406 15.5625 0.609375 13.21875 0.609375 Z M 14.265625 -3.171875 C 16.046875 -3.171875 17.585938 -3.582031 18.890625 -4.40625 C 20.203125 -5.226562 21.207031 -6.382812 21.90625 -7.875 C 22.601562 -9.363281 22.953125 -11.085938 22.953125 -13.046875 L 22.953125 -17.109375 L 22.390625 -17.21875 C 21.671875 -16.71875 20.796875 -16.296875 19.765625 -15.953125 C 18.742188 -15.617188 17.316406 -15.316406 15.484375 -15.046875 C 13.617188 -14.796875 12.140625 -14.40625 11.046875 -13.875 C 9.953125 -13.351562 9.171875 -12.691406 8.703125 -11.890625 C 8.242188 -11.085938 8.015625 -10.097656 8.015625 -8.921875 C 8.015625 -7.035156 8.566406 -5.601562 9.671875 -4.625 C 10.773438 -3.65625 12.304688 -3.171875 14.265625 -3.171875 Z M 14.265625 -3.171875 "/></g></g></g><g fill="#ffffff" fill-opacity="1"><g transform="translate(561.682, 141.597309)"><g><path d="M 5.578125 0 L 5.578125 -32.03125 L 10.078125 -32.03125 L 10.078125 -27.015625 L 10.6875 -26.859375 C 12.175781 -30.503906 14.984375 -32.328125 19.109375 -32.328125 C 21.296875 -32.328125 22.929688 -31.929688 24.015625 -31.140625 L 22.796875 -27.125 L 22.21875 -27.015625 C 21.019531 -27.609375 19.703125 -27.90625 18.265625 -27.90625 C 15.710938 -27.90625 13.75 -26.945312 12.375 -25.03125 C 11 -23.113281 10.3125 -20.007812 10.3125 -15.71875 L 10.3125 0 Z M 5.578125 0 "/></g></g></g></svg>