<svg xmlns="http://www.w3.org/2000/svg" xmlns:xlink="http://www.w3.org/1999/xlink" width="1146" zoomAndPan="magnify" viewBox="0 0 859.5 374.999991" height="500" preserveAspectRatio="xMidYMid meet" version="1.0"><defs><g/><clipPath id="131afb2cae"><path d="M 0 0.109375 L 859 0.109375 L 859 374.890625 L 0 374.890625 Z M 0 0.109375 " clip-rule="nonzero"/></clipPath></defs><g clip-path="url(#131afb2cae)"><path fill="#ffffff" d="M 0 0.109375 L 859 0.109375 L 859 374.890625 L 0 374.890625 Z M 0 0.109375 " fill-opacity="1" fill-rule="nonzero"/><path fill="#ffffff" d="M 0 0.109375 L 859 0.109375 L 859 374.890625 L 0 374.890625 Z M 0 0.109375 " fill-opacity="1" fill-rule="nonzero"/></g><g fill="#000000" fill-opacity="1"><g transform="translate(128.684153, 254.990744)"><g><path d="M 35.53125 -62.28125 L 35.53125 -12.828125 L 102.875 -12.828125 L 102.875 0 L 19.984375 0 L 19.984375 -132.15625 L 101.421875 -132.15625 L 101.421875 -119.3125 L 35.53125 -119.3125 L 35.53125 -75.109375 L 93.640625 -75.109375 L 93.640625 -62.28125 Z M 35.53125 -62.28125 "/></g></g></g><g fill="#000000" fill-opacity="1"><g transform="translate(238.055338, 254.990744)"><g><path d="M 63.09375 0 L 42.84375 0 L 4.875 -99.703125 L 20.796875 -99.703125 L 52.15625 -16.8125 L 54.234375 -16.8125 L 85.328125 -99.703125 L 100.875 -99.703125 Z M 63.09375 0 "/></g></g></g><g fill="#000000" fill-opacity="1"><g transform="translate(341.82238, 254.990744)"><g><path d="M 95 -46.46875 L 26.484375 -46.46875 C 26.910156 -34.351562 29.816406 -25.460938 35.203125 -19.796875 C 40.597656 -14.128906 48 -11.296875 57.40625 -11.296875 C 64.507812 -11.296875 70.226562 -12.5625 74.5625 -15.09375 C 78.90625 -17.625 82.3125 -21.601562 84.78125 -27.03125 L 86.6875 -27.03125 L 96.265625 -21.328125 C 93.378906 -14.097656 88.753906 -8.421875 82.390625 -4.296875 C 76.035156 -0.171875 67.707031 1.890625 57.40625 1.890625 C 47.757812 1.890625 39.46875 -0.00390625 32.53125 -3.796875 C 25.601562 -7.585938 20.269531 -13.335938 16.53125 -21.046875 C 12.800781 -28.765625 10.9375 -38.351562 10.9375 -49.8125 C 10.9375 -61.132812 12.910156 -70.679688 16.859375 -78.453125 C 20.804688 -86.234375 26.195312 -92.035156 33.03125 -95.859375 C 39.875 -99.691406 47.695312 -101.609375 56.5 -101.609375 C 69.269531 -101.609375 79.238281 -98.003906 86.40625 -90.796875 C 93.582031 -83.597656 97.203125 -72.914062 97.265625 -58.75 C 97.265625 -53.207031 97.144531 -49.472656 96.90625 -47.546875 Z M 82.703125 -58.75 C 82.460938 -69.363281 80.113281 -77.078125 75.65625 -81.890625 C 71.195312 -86.710938 64.8125 -89.125 56.5 -89.125 C 47.757812 -89.125 40.898438 -86.695312 35.921875 -81.84375 C 30.953125 -77 27.925781 -69.300781 26.84375 -58.75 Z M 82.703125 -58.75 "/></g></g><g transform="translate(448.120326, 254.990744)"><g><path d="M 17.359375 0 L 17.359375 -99.703125 L 31.359375 -99.703125 L 31.359375 -84.0625 L 33.265625 -83.609375 C 36.578125 -89.453125 40.804688 -93.910156 45.953125 -96.984375 C 51.109375 -100.066406 57.394531 -101.609375 64.8125 -101.609375 C 76.800781 -101.609375 85.492188 -98.546875 90.890625 -92.421875 C 96.285156 -86.304688 98.984375 -76.890625 98.984375 -64.171875 L 98.984375 0 L 84.25 0 L 84.25 -63.8125 C 84.25 -69.84375 83.476562 -74.679688 81.9375 -78.328125 C 80.40625 -81.972656 78.023438 -84.625 74.796875 -86.28125 C 71.578125 -87.9375 67.34375 -88.765625 62.09375 -88.765625 C 53.113281 -88.765625 45.867188 -85.796875 40.359375 -79.859375 C 34.847656 -73.921875 32.09375 -64.351562 32.09375 -51.15625 L 32.09375 0 Z M 17.359375 0 "/></g></g></g><g fill="#000000" fill-opacity="1"><g transform="translate(562.19176, 254.990744)"><g><path d="M 67.4375 -15.8125 L 72.140625 -5.25 C 69.785156 -2.894531 66.691406 -1.117188 62.859375 0.078125 C 59.035156 1.285156 54.894531 1.890625 50.4375 1.890625 C 31.394531 1.890625 21.875 -7.75 21.875 -27.03125 L 21.875 -87.6875 L 4.515625 -87.6875 L 4.515625 -99.796875 L 21.875 -99.796875 L 21.875 -120.859375 L 36.609375 -123.296875 L 36.609375 -99.796875 L 68.703125 -99.796875 L 68.703125 -87.6875 L 36.609375 -87.6875 L 36.609375 -28.46875 C 36.609375 -17.019531 41.582031 -11.296875 51.53125 -11.296875 C 56.945312 -11.296875 61.613281 -12.800781 65.53125 -15.8125 Z M 67.4375 -15.8125 "/></g></g><g transform="translate(638.118864, 254.990744)"><g><path d="M 45.46875 1.890625 C 39.195312 1.890625 33.394531 1.0625 28.0625 -0.59375 C 22.726562 -2.25 18.222656 -4.519531 14.546875 -7.40625 C 10.878906 -10.300781 8.289062 -13.554688 6.78125 -17.171875 L 15.453125 -26.21875 L 17.359375 -26.21875 C 20.609375 -21.269531 24.519531 -17.546875 29.09375 -15.046875 C 33.675781 -12.546875 39.132812 -11.296875 45.46875 -11.296875 C 52.820312 -11.296875 58.410156 -12.726562 62.234375 -15.59375 C 66.054688 -18.457031 67.96875 -22.445312 67.96875 -27.5625 C 67.96875 -31.488281 66.804688 -34.726562 64.484375 -37.28125 C 62.171875 -39.84375 58.421875 -41.757812 53.234375 -43.03125 L 36.421875 -47.1875 C 27.441406 -49.351562 20.890625 -52.785156 16.765625 -57.484375 C 12.640625 -62.191406 10.578125 -68.007812 10.578125 -74.9375 C 10.578125 -80.363281 11.960938 -85.078125 14.734375 -89.078125 C 17.503906 -93.085938 21.492188 -96.175781 26.703125 -98.34375 C 31.921875 -100.519531 38.113281 -101.609375 45.28125 -101.609375 C 54.445312 -101.609375 61.664062 -100.328125 66.9375 -97.765625 C 72.207031 -95.203125 76.320312 -91.628906 79.28125 -87.046875 L 70.953125 -78.90625 L 69.15625 -78.90625 C 65.957031 -82.582031 62.472656 -85.234375 58.703125 -86.859375 C 54.941406 -88.492188 50.46875 -89.3125 45.28125 -89.3125 C 38.71875 -89.3125 33.6875 -88.132812 30.1875 -85.78125 C 26.695312 -83.425781 24.953125 -80.019531 24.953125 -75.5625 C 24.953125 -71.53125 26.1875 -68.273438 28.65625 -65.796875 C 31.125 -63.328125 35.429688 -61.34375 41.578125 -59.84375 L 58.125 -55.859375 C 66.800781 -53.816406 73.066406 -50.410156 76.921875 -45.640625 C 80.773438 -40.878906 82.703125 -34.914062 82.703125 -27.75 C 82.703125 -21.90625 81.316406 -16.753906 78.546875 -12.296875 C 75.773438 -7.835938 71.585938 -4.359375 65.984375 -1.859375 C 60.378906 0.640625 53.539062 1.890625 45.46875 1.890625 Z M 45.46875 1.890625 "/></g></g></g></svg>